<svg xmlns="http://www.w3.org/2000/svg" xmlns:xlink="http://www.w3.org/1999/xlink" viewBox="0 0 841.9 595.3">
  <defs>
    <symbol overflow="visible" id="a">
      <path d="M2.6 0a1.5 1.5 0 01-1.4-1.5v-18.1L1-20v-.4c.2-.1.2-.3.3-.4.2-.4.6-.6 1-.6.7 0 1.2.3 1.5.8l7.8 12.8L19-20.5c.3-.5.7-.7 1.2-.7.4 0 .7.1 1 .4.4.3.5.6.5 1v18.4c0 .4-.1.7-.4 1-.3.3-.6.5-1 .5s-.8-.2-1-.5c-.4-.3-.5-.6-.5-1v-13.1L13-4l-.5.5-.7.2c-.6 0-1-.2-1.3-.7L4-14.6v13.1c0 .4 0 .8-.3 1-.3.4-.7.5-1 .5zm0 0"/>
    </symbol>
    <symbol overflow="visible" id="b">
      <path d="M3-17.5A1.5 1.5 0 011.4-19v-1.1c0-.4.2-.7.5-1l1-.3c.4 0 .7.2 1 .5.3.2.4.6.4 1v.9c0 .4 0 .7-.3 1-.3.3-.6.5-1 .5zm-1.6 2.7c0-.4.1-.7.5-.9l.9-.3c.4 0 .8 0 1 .3.4.3.5.6.5 1V-1c0 .4-.1.8-.4 1-.3.3-.6.4-1 .4S2 .2 1.9 0c-.3-.3-.5-.6-.5-1zm0 0"/>
    </symbol>
    <symbol overflow="visible" id="e">
      <path d="M8.5-16c1.3 0 2.5.3 3.6 1 1 .6 2 1.5 2.6 2.6a6.8 6.8 0 011 4.4c0 .4-.3.7-.5 1-.3.2-.6.3-1 .3H4c.1.7.4 1.4.9 2 .4.6 1 1.1 1.7 1.5a4.2 4.2 0 004.4 0c.6-.4 1.2-1 1.5-1.5l.6-.4.7-.2c.4 0 .7.1 1 .4.3.3.4.7.4 1 0 .4 0 .7-.2.9-.7.9-1.5 1.7-2.5 2.3a7.6 7.6 0 01-9.3-1.5A8.3 8.3 0 01.8-8 8 8 0 013-13.6a8 8 0 012.4-1.7c1-.5 2-.7 3-.7zm4.2 6.4c-.2-1-.7-1.8-1.4-2.4a4 4 0 00-2.8-1c-1 0-2 .3-2.8 1a5 5 0 00-1.6 2.4zm0 0"/>
    </symbol>
    <symbol overflow="visible" id="f">
      <path d="M14.7-16c.4 0 .8 0 1 .3.4.3.5.7.5 1l-.1 14a8.3 8.3 0 01-14.6 5 1.5 1.5 0 010-2 1.5 1.5 0 011.8-.2c.2 0 .4.2.5.4.5.6 1 1 1.8 1.4a5.2 5.2 0 006.8-2c.5-.8.8-1.6.8-2.6V-2c-.6.9-1.3 1.5-2.1 1.9a6.6 6.6 0 01-5.5-.2C4.7-1 4-1.5 3.2-2.3A9 9 0 011.1-8a8.2 8.2 0 014.5-7.4c1-.4 1.9-.7 3-.7a5.5 5.5 0 014.7 2.6l.2-1.1c0-.4.2-.8.4-1 .1-.3.4-.5.8-.5zm-1.6 8a5.4 5.4 0 00-2.1-4.4c-.7-.5-1.5-.7-2.4-.7a4 4 0 00-2.3.7A5.3 5.3 0 004-8a5.8 5.8 0 002.1 4.5c.7.6 1.5.8 2.4.8.8 0 1.6-.2 2.3-.7A5.8 5.8 0 0013.1-8zm0 0"/>
    </symbol>
    <symbol overflow="visible" id="g">
      <path d="M8.8-16c1 0 2.1.2 3 .6a8 8 0 014.4 4.4A8 8 0 0114.4-2c-.7.7-1.6 1.3-2.5 1.7-1 .5-2 .7-3.1.7A7.9 7.9 0 013-2.1 8 8 0 011.4-11a8.6 8.6 0 014.3-4.4c1-.4 2-.6 3-.6zM3.7-7.8a5 5 0 002.5 4.4c.8.5 1.7.7 2.6.7 1 0 1.8-.2 2.5-.7a5.3 5.3 0 001.9-7c-.5-.8-1-1.5-1.9-2-.7-.4-1.6-.7-2.5-.7-1 0-1.9.3-2.6.8a5.3 5.3 0 00-2.5 4.5zm0 0"/>
    </symbol>
    <symbol overflow="visible" id="h">
      <path d="M9.1-16.1c.7 0 1.4.1 2.1.4l1.9 1.1c.5.4 1 .9 1.2 1.3l.2-1.4c0-.4 0-.7.3-1 .2-.3.6-.4 1-.4s.7.1 1 .4c.3.3.4.6.4 1V-1c0 .4-.1.8-.4 1-.3.3-.7.5-1 .5-.5 0-.8-.2-1-.4-.3-.3-.4-.7-.4-1l-.1-1.2C13.8-1.4 13-.7 12-.3a7.2 7.2 0 01-6 0A8.2 8.2 0 011-8a8.1 8.1 0 012.4-5.7 8 8 0 015.7-2.5zm5 8.2a5.4 5.4 0 00-2.4-4.6c-.8-.4-1.6-.7-2.6-.7s-1.8.3-2.6.7A5.3 5.3 0 004-7.9c0 1 .2 1.8.7 2.6.4.8 1 1.5 1.8 2s1.7.7 2.6.7c1 0 1.8-.2 2.6-.7A5.5 5.5 0 0014.2-8zm0 0"/>
    </symbol>
    <symbol overflow="visible" id="i">
      <path d="M2.8-21.4c.4 0 .8.2 1.1.5.3.3.4.6.4 1V-1c0 .4-.1.7-.4 1l-1 .3c-.4 0-.7-.2-1-.4-.4-.3-.5-.7-.5-1.1v-18.7c0-.4.1-.7.4-1 .3-.3.6-.5 1-.5zm0 0"/>
    </symbol>
    <symbol overflow="visible" id="j">
      <path d="M.4-19.5c0-.4.1-.7.4-1 .3-.3.6-.5 1-.5h14.7c.4 0 .8.1 1 .4.3.3.5.6.5 1s-.2.8-.5 1c-.3.3-.6.5-1 .5h-5.8l-.1 16.8c0 .4-.2.8-.4 1-.3.3-.7.5-1 .5C8.6.2 8.3 0 8-.3c-.3-.2-.4-.6-.4-1v-16.8H1.8c-.4 0-.7 0-1-.4-.3-.2-.4-.6-.4-1zm0 0"/>
    </symbol>
    <symbol overflow="visible" id="k">
      <path d="M11.2-14.2c0 .8-.4 1.2-1.2 1.3a2 2 0 01-1-.3c-.4-.2-.8-.3-1.3-.3a3 3 0 00-2 .7c-.5.4-.8 1-1 1.7-.3.8-.4 1.6-.4 2.5v7.5c0 .5-.1.8-.4 1-.2.3-.6.5-1 .5C2.4.4 2 .2 1.8 0c-.3-.3-.4-.6-.4-1v-13.6c0-.4.1-.8.3-1a1 1 0 011-.5l.7.3c.3.2.5.5.6 1l.2 1c0-.2.3-.5.7-.9l1.3-1c.5-.2 1-.4 1.5-.4 1 0 1.9.2 2.5.4.6.2 1 .7 1 1.5zm0 0"/>
    </symbol>
    <symbol overflow="visible" id="l">
      <path d="M3.7-18.7c0-.4.1-.7.4-1 .3-.3.6-.4 1-.4s.8.1 1 .4c.3.3.5.6.5 1v3h2c.3 0 .7 0 1 .4.2.2.4.6.4 1 0 .3-.2.7-.5 1-.2.2-.6.3-1 .3h-2v9.1l.2 1c.1.2.4.3.7.3A2 2 0 008.5-3a1.8 1.8 0 011-.4c.3 0 .6.2 1 .5.2.3.4.6.4 1 0 .5-.2.9-.6 1.2A5 5 0 019 0L7.5.3C6.2.3 5.3 0 4.6-.8c-.6-.8-1-1.7-1-2.8V-13H1.8c-.4 0-.8 0-1-.4-.3-.2-.4-.6-.4-1 0-.3 0-.6.4-1 .2-.2.6-.3 1-.3h1.9zm0 0"/>
    </symbol>
    <symbol overflow="visible" id="d">
      <path d="M3 .1C2.4.1 2 0 1.8-.3c-.3-.3-.5-.6-.5-1V-20c0-.4.1-.8.4-1 .3-.3.7-.5 1-.5.5 0 .8.2 1 .5.4.2.5.6.5 1v17h11.2c.4 0 .7.2 1 .5.3.3.4.6.4 1s-.1.8-.4 1c-.3.3-.6.5-1 .5zm0 0"/>
    </symbol>
  </defs>
  <path d="M557.2 428L466 264.3l29.3-10.9 24.2 10.5 63.3 113.4-12.8 15.1-4.4 19zm0 0" fill="#ee3342"/>
  <path d="M414.2 400.7s8.2 3.2 14.3-1.6c6.1-4.8 6.2-11.9 5.9-12.3L423.6 371s-6.7-2.1-12 1.4c-5.4 3.4-42 28.9-42 28.9s-.9.6-.2 1.7c.6 1.1 19.6 28.5 19.6 28.5l12.1-8.3-6-9.1zm0 0" fill="#fff" stroke="#211e1e" stroke-width="1.1" stroke-miterlimit="10"/>
  <path d="M403.4 395.8l2.2 41.5s0 1 1.3 1l34.6-1.7-.7-14.6-11 .3-1.4-23.3s7-5.3 6.2-13c-1-7.8-6.9-11.6-7.4-11.5l-19 1s-5.3 4.5-5.2 10.9l.4 9.4" fill="#fff"/>
  <path d="M403.4 395.8l2.2 41.5s0 1 1.3 1l34.6-1.7-.7-14.6-11 .3-1.4-23.3s7-5.3 6.2-13c-1-7.8-6.9-11.6-7.4-11.5l-19 1s-5.3 4.5-5.2 10.9l.4 9.4zm0 0" fill="none" stroke="#211e1e" stroke-width="1.1" stroke-miterlimit="10"/>
  <path d="M438 378.2l-33.1-3a1 1 0 01-1-1.3l6-64.6c0-.6.5-1 1.1-1l33.2 3c.6.1 1 .6 1 1.2l-6 64.7c0 .6-.6 1-1.2 1" fill="#fff"/>
  <path d="M438 378.2l-33.1-3a1 1 0 01-1-1.3l6-64.6c0-.6.5-1 1.1-1l33.2 3c.6.1 1 .6 1 1.2l-6 64.7c0 .6-.6 1-1.2 1zm0 0" fill="none" stroke="#211e1e" stroke-width="1.1" stroke-miterlimit="10"/>
  <path d="M445.4 305.2l-35.7-3.3c-2.2-.2-3.9-2.2-3.7-4.4l2.8-29.7a4 4 0 014.4-3.7l35.7 3.3a4 4 0 013.7 4.4l-2.8 29.7c-.2 2.3-2.2 4-4.4 3.7" fill="#fff"/>
  <path d="M445.4 305.2l-35.7-3.3c-2.2-.2-3.9-2.2-3.7-4.4l2.8-29.7a4 4 0 014.4-3.7l35.7 3.3a4 4 0 013.7 4.4l-2.8 29.7c-.2 2.3-2.2 4-4.4 3.7zm0 0" fill="none" stroke="#211e1e" stroke-width="1.1" stroke-miterlimit="10"/>
  <path d="M441.4 311.1l-28.3-2.6.5-6.2 28.4 2.6zm0 0" fill="#fff" stroke="#211e1e" stroke-width="1.1" stroke-miterlimit="10"/>
  <path d="M440 266.5l-18-1.6c-.8-.1-1.5-.9-1.4-1.7l.5-5.4c.1-.9.9-1.5 1.7-1.4l18 1.6c.9.1 1.5.9 1.4 1.7l-.4 5.4c-.1.9-.9 1.5-1.7 1.4" fill="#fff"/>
  <path d="M440 266.5l-18-1.6c-.8-.1-1.5-.9-1.4-1.7l.5-5.4c.1-.9.9-1.5 1.7-1.4l18 1.6c.9.1 1.5.9 1.4 1.7l-.4 5.4c-.1.9-.9 1.5-1.7 1.4zm0 0" fill="none" stroke="#211e1e" stroke-width=".7" stroke-miterlimit="10"/>
  <path d="M444.3 321.6l3.4 2s.7.5 2.3 0c1.5-.4 9.5-1.3 9.5-1.3l4 17-21.3 5.2M463.6 336.5l3.5-.8.2-9.8-6.4-.1" fill="#fff" stroke="#211e1e" stroke-width="1.1" stroke-miterlimit="10"/>
  <path d="M467 335.7l1.1-18.5s.1-1 1.6-1l14.7.3s3 .1 3.2 3c.2 2.7-.2 8-.2 8s-.6 8.2-8 8l-12.3.2" fill="#fff"/>
  <path d="M467 335.7l1.1-18.5s.1-1 1.6-1l14.7.3s3 .1 3.2 3c.2 2.7-.2 8-.2 8s-.6 8.2-8 8l-12.3.2zm0 0" fill="none" stroke="#211e1e" stroke-width="1.1" stroke-miterlimit="10"/>
  <path d="M441.7 369l-37.8-3.5.5-5.3 37.8 3.5zm0 0" fill="#fff" stroke="#211e1e" stroke-width="1.1" stroke-miterlimit="10"/>
  <path d="M428 295.5a2 2 0 00-1.3-.1c-6.5 1.3-7.7 1.2-8.7.5-1-.8-1.2-4.2-1-5.4.2-1.1 1.9-5.2 4.9-3.4 3 1.8 6.1 1.9 6.1 1.9s3.2.5 6.5-.6c3.2-1.2 4 3 4 4.3-.1 1.2-.9 4.5-2 5-1.2.6-2.4.5-8.5-2.2" fill="#fff"/>
  <path d="M428 295.5a2 2 0 00-1.3-.1c-6.5 1.3-7.7 1.2-8.7.5-1-.8-1.2-4.2-1-5.4.2-1.1 1.9-5.2 4.9-3.4 3 1.8 6.1 1.9 6.1 1.9s3.2.5 6.5-.6c3.2-1.2 4 3 4 4.3-.1 1.2-.9 4.5-2 5-1.2.6-2.4.5-8.5-2.2zm0 0" fill="none" stroke="#211e1e" stroke-width="1.1" stroke-miterlimit="10"/>
  <path d="M421.9 280.6c1.4.1 2.6-1 2.8-2.3a2.5 2.5 0 00-5-.5c-.2 1.4.8 2.6 2.2 2.8M436.7 282c1.4.2 2.6-.8 2.8-2.2a2.5 2.5 0 00-5-.5c-.2 1.4.8 2.6 2.2 2.8" fill="#211e1e"/>
  <path d="M423.8 269.7s-4.4-.4-6 3.6M436.6 271s4.3.5 5 4.8" fill="#fff" stroke="#211e1e" stroke-width="1.1" stroke-miterlimit="10"/>
  <path d="M421.4 334.8s-9.4-2-9.6-11.4c-.3-9.3 8.5-12 8.5-12s1.7-.7 2.9-.6l19.3.2s.8 0 2-1c1-1.3 7.5-6 7.5-6l12 12.5-16.5 16s-2 2.5-5.3 3-20.8-.8-20.8-.8" fill="#fff"/>
  <path d="M421.4 334.8s-9.4-2-9.6-11.4c-.3-9.3 8.5-12 8.5-12s1.7-.7 2.9-.6l19.3.2s.8 0 2-1c1-1.3 7.5-6 7.5-6l12 12.5-16.5 16s-2 2.5-5.3 3-20.8-.8-20.8-.8zm0 0" fill="none" stroke="#211e1e" stroke-width="1.1" stroke-miterlimit="10"/>
  <path d="M462.7 314l2.6-2.3-4.8-8.6-5.6 3.1" fill="#fff" stroke="#211e1e" stroke-width="1.1" stroke-miterlimit="10"/>
  <path d="M465.3 311.7l-8.5-16.5s-.4-1 .8-1.7l13-7.1s2.5-1.5 4.1.9c1.6 2.3 4 7.1 4 7.1s3.6 7.3-2.9 10.9l-10.5 6.4" fill="#fff"/>
  <path d="M465.3 311.7l-8.5-16.5s-.4-1 .8-1.7l13-7.1s2.5-1.5 4.1.9c1.6 2.3 4 7.1 4 7.1s3.6 7.3-2.9 10.9l-10.5 6.4zm0 0" fill="none" stroke="#211e1e" stroke-width="1.1" stroke-miterlimit="10"/>
  <path d="M417.2 260.9l1.5-17.4a23.1 23.1 0 00-11.1 16.6zm0 0M444 263.2l9.7.8c.2-7.2-3-13.9-8.2-18.3zm0 0M405.5 264.6l49.4 4.2c1.1.1 2-.5 2.4-1.4v.3c0-1.2-1-2.1-2-2.2l-1.7-.1-9.7-.9h-1.2l-7.3-.7h-1.2l-7.3-.7-1.3-.1-7.3-.6-1.2-.1-9.7-.9-1.6-.1c-1-.1-2 .5-2.4 1.5.2 1 1 1.7 2.1 1.8" fill="#f3d717"/>
  <path d="M408.9 266.3l1.5.1 2 .2 2.6.2 30.2 2.6 2.7.2 2 .2 1.5.1 3.4.3a2.3 2.3 0 002-.9 2.4 2.4 0 00.5-.8 2.4 2.4 0 000-.8v-.3c-.4.9-1.3 1.5-2.4 1.4l-49.4-4.2c-1 0-1.9-.8-2-1.8l-.2.3a2.1 2.1 0 000 .8 2.2 2.2 0 00.3.9 2.5 2.5 0 00.5.7c.4.3.8.4 1.3.5zm0 0" fill="#ebbd17"/>
  <path d="M427 261.7l7.3.6L436 241l.2-2.2c0-.6-.5-1.3-1.2-1.3l-4.7-.4c-.7 0-1.3.4-1.4 1.1l-.2 2.2zm0 0M418.5 261l7.3.6 1.8-21.2v-.7c0-.6-.4-1.2-1-1.3l-5-.4c-.7 0-1.2.5-1.3 1.1l-.3 3.6zm0 0M435.5 262.4l7.3.7 1.6-18.3.3-3.6c0-.7-.5-1.2-1.1-1.3l-5-.4c-.6 0-1.2.4-1.2 1v.7zm0 0" fill="#f3d717"/>
  <path d="M417.1 262.3h1.2l7.3.7h1.3l7.3.7 1.2.1 7.3.6 1.2.1 9.7.9v-.7-.7l-9.6-.8 1.5-17.5-.5-.4-.5-.4h-.1l-1.6 18.2-7.3-.7 1.8-21.2a6.8 6.8 0 00-.5-.1l-.6-.2-2 21.4-7.2-.6 1.8-21.4h-.6-.1-.2a4 4 0 00-.3.1l-1.8 21.2-7.3-.6 1.5-18.3-.2.1a22.7 22.7 0 00-1 .7l-1.6 17.4-9.6-.8-.1.6v.7zm0 0" fill="#ebbd17"/>
  <path d="M557.7 436.2H284.2l41-79.6-5.5-13.3-2.4-26.7-13.6-23.6-95.3 190.1h425l-47.7-95.6-10.2 9.3-6.5 19.7zm0 0" fill="#3a54ae"/>
  <path d="M307.9 284.1l113-226.3 52.7 105.4-4.1 30.8-22.2 21.4-26.4-52.7-90.2 180.6-8.2-31.8-9.7-9.5zm0 0" fill="#f8a317"/>
  <path d="M334.8 349.6l5.7-2.6 3.1 2.6-2 7h-6.8zm0 0" fill="#f8ab17"/>
  <path d="M332.7 366h6.5l-3.2 7.2h-7zm0 0M346.8 377h7.8s1 1.1 0 3.2l-1 2c-2 4-10 2.7-10 2.7l-4.4-4zm0 0" fill="#3a54ae"/>
  <path d="M441.8 223.6v5.7h3.7l3.6-5.7zm0 0M429.6 214.1L428 221l5.7 2.6 1.6-8.3zm0 0" fill="#f8ab17"/>
  <g fill="#fff">
    <use height="100%" width="100%" y="469.3" x="262.2" xlink:href="#a"/>
    <use height="100%" width="100%" y="469.3" x="287.3" xlink:href="#b"/>
    <use height="100%" width="100%" y="469.3" x="295.2" xlink:href="#c"/>
  </g>
  <use height="100%" width="100%" y="469.3" x="305.7" xlink:href="#d" fill="#fff"/>
  <g fill="#fff">
    <use height="100%" width="100%" y="469.3" x="325.2" xlink:href="#e"/>
    <use height="100%" width="100%" y="469.3" x="344.1" xlink:href="#f"/>
    <use height="100%" width="100%" y="469.3" x="363.9" xlink:href="#g"/>
  </g>
  <g fill="#fff">
    <use height="100%" width="100%" y="469.3" x="383.7" xlink:href="#c"/>
    <use height="100%" width="100%" y="469.3" x="394.2" xlink:href="#h"/>
    <use height="100%" width="100%" y="469.3" x="415.1" xlink:href="#i"/>
    <use height="100%" width="100%" y="469.3" x="423.1" xlink:href="#c"/>
  </g>
  <use height="100%" width="100%" y="469.3" x="433.5" xlink:href="#j" fill="#fff"/>
  <g fill="#fff">
    <use height="100%" width="100%" y="469.3" x="453.3" xlink:href="#e"/>
    <use height="100%" width="100%" y="469.3" x="472.1" xlink:href="#k"/>
    <use height="100%" width="100%" y="469.3" x="485.9" xlink:href="#k"/>
    <use height="100%" width="100%" y="469.3" x="499.7" xlink:href="#b"/>
    <use height="100%" width="100%" y="469.3" x="507.7" xlink:href="#l"/>
    <use height="100%" width="100%" y="469.3" x="521.1" xlink:href="#g"/>
    <use height="100%" width="100%" y="469.3" x="540.9" xlink:href="#k"/>
    <use height="100%" width="100%" y="469.3" x="554.7" xlink:href="#b"/>
    <use height="100%" width="100%" y="469.3" x="562.7" xlink:href="#g"/>
  </g>
</svg>
