<?xml version="1.0" encoding="UTF-8"?>
<svg id="Livello_1" xmlns="http://www.w3.org/2000/svg" version="1.1" viewBox="0 0 329.8 307.8">
  <!-- Generator: Adobe Illustrator 29.5.0, SVG Export Plug-In . SVG Version: 2.1.0 Build 137)  -->
  <defs>
    <style>
      .st0 {
        fill: #fff;
      }
    </style>
  </defs>
  <path class="st0" d="M255.3,169.2l-2.6.6v2.1l2.6-.5v-2.2ZM256.8,168.4l-1,.2v2.7l1-.2v-2.7ZM260.2,168l-2.7.7v2.4l2.7-.5v-2.6ZM262.1,167.1l-1.4.3v3l1.4-.3v-3ZM272.1,165.1l-3.6.9v2.9l3.6-.7v-3.1ZM265.7,166.6l-3,.7v2.7l3-.6v-2.8ZM267.6,165.7l-1.3.3v3.3l1.3-.3v-3.3ZM154,146.3c-.3,0-.7.2-.8.5h1.6c-.1-.3-.4-.5-.8-.5ZM78,100.4l-3.6-3.6-3.6,3.6h.4l3-2.7,3,2.7h.8ZM60.3,98.7l-2.3,1.7h4.6l-2.3-1.7ZM107.1,132l-.9,2.1c0,.1-.1.2,0,.2s.2.1.5.1.5.1.8.3.6.3.9.3h.1c.3,0,.6-.1.8-.3.3-.2.6-.3,1-.3,0,0,.1,0,.1-.1v-.2l-.9-2.1v-.8c0-.2-.1-.5-.4-.5h-.7c-.5,0-.9-.1-1.1.1-.1.1-.1.2-.1.4l-.1.8ZM107.4,131h1.8v2.4h-1.8v-2.4ZM71.9,100.4h4.6l-2.3-1.7-2.3,1.7ZM272.2,164.6l-3.6.9h0l3.6-.9h0ZM56.5,107.6c-.1.2-.1.4,0,.6s.6.2,1,.2h.1c.4.1.9.2,1.2.5,1,.6,2.3.6,3.3,0,.4-.2.8-.4,1.2-.5h0c.2.1.5,0,.6-.2s.1-.4,0-.6l-1.5-3.6v-.4c0-.6,0-1.5-.3-1.8-.1-.1-.3-.2-.5-.2h-2.8c-.2,0-.4.1-.5.2-.4.4-.3,1.2-.3,1.8v.5l-1.5,3.5ZM58.8,102.4h2.9v4h-2.9v-4ZM223.6,150.4h-14.3l-1.3,1.3,1.1-1h14.1l.4-.3ZM118.2,129.8l-1.9-1.9-1.9,1.9h.1l1.8-1.6,1.8,1.6h.1ZM114.2,134.2c.1.1.2.1.5.1s.5.1.8.3.6.3.9.3.7-.1.9-.3c.2-.1.5-.2.7-.3h.1c.1,0,.2,0,.3-.1v-.2l-.9-2.1v-.2c0-.3,0-.8-.2-1q-.1-.1-.2-.1h-.7c-.5,0-1-.1-1.2.1-.1.1-.1.2-.1.4v.9l-.9,2.1c-.1,0-.1.1,0,.1h0ZM115.3,130.9h1.8v2.4h-1.8v-2.4ZM115.1,129.8h2.2l-1.1-.8-1.1.8ZM120.5,137.7h0l2.8,2.8-2.8-3.1h-15.3l15.3.3ZM108.3,129l-1.1.8h2.2l-1.1-.8ZM70.4,108.1c.1.2.6.2.9.2h.1c.4.1.9.2,1.2.5,1,.6,2.3.6,3.3,0,.5-.3,1.1-.5,1.6-.5.1,0,.2-.1.3-.2.1-.2.1-.4,0-.5l-1.5-3.6v-.4c0-.6,0-1.5-.3-1.8-.1-.1-.3-.2-.5-.2h-2.8c-.2,0-.4.1-.5.2-.4.4-.3,1.2-.3,1.8v.5l-1.5,3.6c-.1.1,0,.3,0,.4ZM72.7,102.3h2.9v4h-2.9v-4ZM279,162.9l-3.6.9v.1l3.6-1h0ZM179.5,153.2l-.2.3,26.3-.3h-26.1ZM281.5,162.3l-1.9.5v4l1.9-.4v-4.1ZM274.4,164l-1.6.4v3.7l1.6-.3v-3.8ZM279,163.4l-3.6.9v3.3l3.6-.7v-3.5ZM138.6,68.5c-.5,1.6-.8,3.4-.6,5.1h.5v-2.2c.1-2.8,1.6-5.4,4-6.9l.1-.1c.6-.4,1.1-.9,1.6-1.4,1.1-1.2,1.8-2.7,1.8-4.3-1.4,1.6-3.1,3-5,4v.5c1.3-.3,3-1.9,4.1-2.8-1.6,3.4-5.4,4.6-6.5,8.1ZM156.3,46.2c1.5-.6,2.8-1.8,3.4-3.3-1.1,1-2.3,1.8-3.7,2.4-.3.1-.6.2-.8.4-1.3.7-2.4,1.7-3.1,3,.5-.5,1.2-.9,1.8-1.3.6-.4,1.4-.7,2.4-1.2h0ZM146.2,66.8c2.3-1.5,4.3-3.5,5.5-6,.4-.9.8-1.8,1-2.7.8-2.4,2.1-4.6,3.7-6.6-3.1,1.4-5.4,4-6.4,7.2-.7,2.9-2,5.7-3.8,8.1h0ZM178.3,154h-3.6l.1.2h3.5v-.2ZM136.7,75.9c-.7.6-1.6,1-2.5,1.2-4.6.7-9.3.6-13.9-.2,9.1,15,26.3,25.3,43.9,25.1,6.1,0,12.2-1,17.9-3.2,0,0,.6-.2,1-.4v.1c.9-.5,2.6-.8,3.1-1.6.2-1.7.2-3.4,0-5.1-.3-5.5-1.9-8.5-3.3-10.1-1-1.1-2.2-2-3.5-2.5-.6-1-1.7-1.6-2.8-1.7-.2,0-.3,0-.5.1-.9-.6-1.9-.9-3-.7-1.3-1.1-3-1.6-4.7-1.4-1.6.1-2.1-2.9-2.5-5.3-.1-1.5.1-3,.7-4.4.8.2,1.7.5,2.5.8,2.6.6,5,1.2,7.1-.2.2-.1.6-.2.4-.5l.1.1c1.5-1.7.6-3.8.8-5.6.9-.7,1.2-1.9.8-3,.6-2,3-1.8,3.9-4.2.5-.3-1.9-3.1-2.4-4-.5-1-.8-2-.7-3.1.1,0,.1-.8.1-.8.1-.4.2-.8.3-1.2,1.6-.1,3.1-.8,4.4-1.9,1.4-1.1,2.5-2.6,3.3-4.2-1.1-1.2-2.4-2.3-3.7-3.2l1.5-1.4c.1-.1.2-.2.2-.3l1.5-1.4-.9-.3c-5.1-1.9-16.5-10-16.6-10.1-4-2.5-8.5-2.5-12.2-2.2-.4-1.9-.5-3.8-.3-5.7.5-3.5,3.3-6.4,6.7-8.2l-1.3-4.8c-16.5-2-28.9,6.2-33.5,17.2-4.2,10.4-2.5,22.4,4.4,29l.4.4c.8-.5,1.9-1.4,2.7-1.9l.3-.1v-.1c0-.7-.1-1.4-.1-2-.1-5.8-.3-14.1,5.7-15-5.6,7-6.3,15.7-.6,22.7,1,1.5,2,3,2.1,4.7-.1,2.7-1.2,5.2-3.1,7.1l.3.3h0c2.5-2.8,3.1-4.9,3.2-7.4-.1-2.2-1.4-4-2.6-5.6-5.2-7.4-4.8-14.1,1.7-22.4-1.7-.1-3.4.6-4.7,1.8-2.2,2.3-2.9,6.9-2.5,15.5v.1l-1.7,1.2-.1-.1c-.6-.7-1.3-1.6-1.9-2.5-1-1.5-1.8-3-2.4-4.6v-.1h0c.6-2.8,2.1-5.4,4.2-7.4-2.2,1.2-4.1,2.9-5.5,5l-.5.7.2-.8c.2-.7.4-1.3.8-1.9,1.1-1.9,2.5-3.5,4.2-4.9-2.1,1.4-3.8,3.2-5.2,5.2l-.3.4v-.4c0-.5-.1-1-.2-1.4-.3-1.3-.6-2.8.5-3.8,1.8-1.8,3.9-3.2,6.2-4.3-2.3.8-4.6,1.9-6.7,3.2l-.3.2.1-.3c.1-.5.1-1.1.1-1.6,0-1.5.1-3.2,1.8-3.4,2.9-.9,5.8-1.5,8.8-1.7h-.6c-2.6-.1-5.3.2-7.9.8-.6.2-.9.3-1.2.1-.4-.4,0-1.6.7-3.1.2-.5.4-1,.6-1.5v-.1h.2c1.6.1,3.4.4,5.2.8-1.3-.4-2.9-1-4.7-1.7l-.2-.1.1-.2c.3-.4.5-.9.7-1.3.5-1,1-2.1,1.6-2.1.3,0,.6.1.9.6,2,1.7,4.3,3.2,6.7,4.3-2.7-1.6-5-3.7-6.7-6.3l-.1-.1.1-.1c.3-.3.5-.6.8-.9.5-.6,1-1.3,1.5-1.3h0c.3,0,.6.3.8.7,2.4,2.7,5.3,5,8.4,6.8-2.9-2.2-5.5-4.8-7.6-7.8-.2-.3-.4-.6-.6-.9l-.1-.1.1-.1c.3-.2.6-.5.9-.8.6-.6,1.3-1.2,1.8-1,.2.1.4.4.5.8,1.6,3.5,4.1,6.5,7.2,8.8-4-4.3-5.1-7.9-5.2-10.2v-1.5h.1c4.6-2.4,9.8-3.6,15-3.5h.3v.3c-1.1.1-2.2.2-3.2.3-1.8.8-2.8,2.7-2.4,4.6l-.3.1c-.4-1.3-.5-2.8-.1-4.1-1.9.4-3.7,1-5.5,1.8-1.4,4.5.9,9.8,5.8,13.3-.7-1.4-2.4-4.8-1.6-7.3l.2-.6.1.6c.6,2.4,1.6,4.7,2.9,6.9-1-3.9-.7-10.4,8.6-15.4l.2-.1.1.2q1,3.9.9,4h0c-7.8,4.7-6.9,10.3-6.3,14,0,.3.1.5.1.8v.1h-.2c-1.4.2-5.8.9-8.4,3.5,2.8-1.4,5.8-2.2,8.9-2.3h.2l.1.3h0c-7,1.5-10,4.1-10.9,5.1-.6,1.6-.6,3.4,0,4.9,2.5-4.3,7-7.1,12-7.4l.9-.1-.8.4c-1.2.5-2.3,1.2-3.3,2-.8.6-1.1,1.2-.9,1.8.4,1.5,4.1,2.4,6.5,3,.7.2,1.4.3,1.8.5,2.2.7,3.2,1,3.3,1.5,0,.2-.1.5-.3.6-.5.2-1,.5-1.6.6-5.1,1.9-18.5,6.9-17.8,19.1.7-2.1,1.7-4.1,2.9-5.9,3-4.1,6.4-6.6,12.9-9-3.4,1-6.6,2.4-9.6,4.2l-.2-.3c6.9-5.3,10.4-7,17.1-6.8,1.3.1,2.6.4,3.9.8l.4.1-.3.2c-.3.1-.5.3-.7.5h-.1c-.7-.1-1.4,0-2.1.1-1.2.2-2.4.7-3.5,1.4-2,1.2-2.9,2.3-5.6,6.6-1.1,1.7-2.8,3-4.8,3.5,1.6-.1,3.1-.6,4.5-1.5.9-.6,1.7-1.4,2.2-2.4.5-.9,1.1-1.7,1.9-2.3.9-.6,2-1,3.1-1.1h.2l.1.1.2.2h-.4c-.8.3-1.5.8-2.1,1.4-1.2,1.2-1.3,3-1.3,4.6,0,.8.1,1.5.3,2.3.4,1.2-.2,2.5-.8,3.7-1.1,1.9-1.1,4.2.1,6.1,2.3,3.5,6.1,5.8,10.3,6h.1c.5,0,1.1-.1,1.6-.3l.9-.3-.8.6c-1.5,1.2-2.6,1.3-6.3.6-.6-.1-1.2-.2-1.7-.5-.6-.3-1.3-.5-2-.5-.5.6-1,1.9-1,5l-.3,1.4-.2-.4c-.8-1.9-1.3-3.9-1.5-6v-1c-.5-.2-1-.5-1.5-.8-1.3-.8-2.3-2.1-2.7-3.6-.2-1-.3-2-.2-2.9h0l-.8,1.3-.1-.4c-.1-1.8.1-3.5.6-5.2-1.1,1.6-1.7,3.5-1.9,5.5,0,1.2-.2,2.4-.6,3.5.1,1.5.4,3,.8,4.4.7,2,1.9,3.8,3.5,5.2l.5.4-.6-.2c-3.3-.9-4.7-1.9-6.1-3.6-.9,1.8-2.2,3.3-3.9,4.5-.9.7-1.7,1.5-2.5,2.4-2.9,3.2-1.1,9.3.7,11.7l.2.3h-.4c-5.1-.7-7.5-8.8-7.7-12.3-.7,1.4-2,2.4-3.5,2.7-1.1.3-2.1.5-3.2.6l-.1-.3.8-.2s3.3-1,3.4-3.7l-.5.2c-.1.6-.5,1.3-1.1,1.9h0ZM129.4,40.3c0-.4.1-.8.1-1.2l.1-.6.2.6c.9,2.5,2.1,4.8,3.7,6.9l-.2.2c-1.5-1.7-2.9-3.7-3.9-5.9h0ZM173,28.6c-3.1-2.3-5.3-3.9-8.8-4.8l-3.7-.7.5-.2c1.1-.4,2.2-.6,3.3-.6h.1c2,0,3.9.6,5.4,1.8,8.6,6.4,13.1,7.7,14.6,8,.2,0,.3.2.4.4.1.2,0,.4-.1.5l-2,1.8c1.4.9,2.7,2,3.9,3.2l.1.1v.1s-2.6,5.1-7.4,5.5c-.3.6-.4,1.2-.5,1.9v.6l-.3-.5c-.3-.5-.4-1.1-.4-1.7-.1-.1,0-.3.2-.9.1-.2.1-.4.2-.6.2-1.1,0-2.3-.8-3.2l-.3-.4.5.1c.7.2,1.3.6,1.8,1-.2-.6-.5-1.2-1-1.6l-.4-.3.5.1c.5.1,1,.1,1.6.1.7-.1,1.3-.1,1.8-.1s1.3,0,1.4-.2,0-.2-.5-.7h0c-.2-.1-.5-.4-1.2-1.1-1.6-1.5-4.6-4.4-5.4-5l-.2-.1c-1.2-1-2.3-1.8-3.3-2.5ZM168.3,39.6l-.9-.4,1,.1c2.9.3,3.9-.7,4.9-1.6.3-.3.6-.5.9-.8h.1c.7,0,1.4.2,2,.6.3.2.7.4,1.1.5l.6.2-.6.1c-.9.2-1.8.5-2.7.8-1.4.5-2.8.8-4.2.8-.9,0-1.6-.1-2.2-.3h0ZM172.4,48.4v-.2c.1-.2.1-.3.1-.5-.2.4-.6.6-1,.7-.4.1-.7-.1-.9-.4-.1-.2-.2-.4-.2-.6-1,.3-2.2,0-2.9-.8-.1-.1-.2-.2-.1-.4s.2-.1.3,0l.1.1c.7.1,1.4,0,2-.4.5-.3,1.1-.4,1.8-.5-.9,0-1.9.1-2.8.3l-.4.1-.9.1,1.3-.6c2.6-1.3,2.8-1.4,6.8-.3h.2l-.4,1c.2-.1.3-.3.5-.4l.2-.1.1.2c.9,2.8,2.4,5.4,4.4,7.6l.1.1v.1c-.4,1.1-1.3,2-2.4,2.4h-.3l-.1-.1c-.4-.9-1.4-1.4-2.3-1h-.2l-.1-.1c-.5-.4-.7-.9-.7-1.5.1-.4.5-.8,1.2-1.1.3-.2.3-.3.3-.4s-.2-.7-1.7-1.5c-1-.5-1.7-1-1.7-1.8,0,.1-.1.1-.3,0,.1.1.1,0,0,0h0ZM176.9,60.1c-.1,0-.2.1-.2.2-.2.2-.5.3-.8.3h-.2l-2.3-.5.6-.1c.1,0,2.1-.6,2.9-.1l.2.2h-.2ZM177.2,59.2h0c-1.1-.1-2.1,0-3.2.3h0c-.2-.1-.4-.3-.5-.6l-.2-.4.4.1c.8.1,1.7-.1,2.3-.7.3-.2.6-.4.9-.6.4-.2.9,0,1.2.3.2.5.1,1.2-.4,1.6-.3.1-.5,0-.5,0h0ZM148.9,76.9h0v-.2c.5-.7,1.1-1.3,1.8-1.8l.2-.1.1.2c.5,2.2,1.9,4,3.9,5l.6.3h-.7l-.5-.1c-2.1-.3-4.1-1.5-5.4-3.3ZM162.7,90.8c7.6-5.5,7.8-9.9,5.7-14.7l-.1-.1.1-.1c.3-.3,1.8,0,1.8,0,.7.1,2.2.5,2.8,1.4.5-.1,2.2-.2,3.1.8.5-.2,1-.2,1.4,0,.7.3,1.3.8,1.7,1.5.9.2,1.6.6,2.2,1.3,1.4.9,4.5,3.9,4.5,12.3v3.6h-.1c-.7.3-1.4.6-2,.9l-.2.1v-.2c-.1-5.8-.8-8.5-2.1-11.2,1.2,3.9,1.3,8.1.2,12.1v.1h-.1c-1.1.4-2.3.8-3.5,1.1l-.2.1.1-.3c1.6-5.9,1.1-12.2-1.4-17.9,1,6.3.3,12.8-2,18.8v.1h-.1c-2.2.4-4.3.7-6.5.8h-.3l.1-.2c3.9-7.1,5.7-10.7,5.7-15.5,0-1.5,0-3-.2-4.5.1,8.5-3.8,16.6-9.8,19.9-.6.3-1.3.4-1.9.4-.8,0-1.6-.1-2.4-.3-.6-.1-1.3-.2-1.9-.2h-.9l.9-.3c2.6-.8,15-5.2,13.7-19.9-.4,4.5-2.4,8.7-5.6,11.9-6.2,6.1-14.9,5.9-21.1,4.6h0c-7.8-3.4-14.7-8.7-19.9-15.4l-.4-.5.1-.1.1-.1.4.5c8.8,10.9,32.3,13.4,38.1,9.2h0ZM173.6,153.2h-17.1l-.2.3,8.8.1,8.8-.1-.3-.3ZM252.3,108.2c.1.1.2.2.3.2h.2c.4,0,.8.1,1.2.4,1.1.8,2.6.8,3.8,0,.5-.3,1-.4,1.6-.4h.1c.1,0,.2-.1.3-.2.1-.2.1-.4,0-.5l-1.5-3.6v-1.4c0-.5-.3-.9-.8-1h-2.8c-.5.1-.8.5-.8,1v1.5l-1.5,3.6c-.2,0-.2.2-.1.4h0ZM254.5,102.4h3v4h-3v-4ZM51.1,166.9l3.6.7v-3.3l-3.6-.9v3.5ZM48.6,166.4l1.9.4v-4.1l-1.9-.5v4.2ZM74.8,157.2c.8,0,1.5.2,2.1.7v-.2h1.2l-3.3-2.3-3.3,2.3h1.2v.2c.7-.4,1.4-.7,2.1-.7h0ZM57.9,164.7l3.6.9h0l-3.6-.9h0ZM252,169.7l-.4.1v2.5l.4-.1v-2.5ZM55.7,167.8l1.6.3v-3.7l-1.7-.4.1,3.8ZM51.1,163l3.6.9v-.1l-3.6-.8h0ZM64.3,166.2h0l.7.2-.7-.2ZM96.2,120.7l1.3,1.6v-4.5l-.2-.6-1.1.2.1.3-.1,3ZM94.2,112.3l1.2,2.8-.5-.2.4.9.5-.6-1.6-3.2-.5.5.1.3.4-.5ZM238.2,116.5l1.2-1.4v-6.1l-1.2,2.7v4.8ZM57.2,155.5l-3.2,2.2h1.2v.2c1.2-1,2.9-1,4.1,0v-.2h1.2l-3.3-2.2ZM94.2,117.8v-3.4h0l-.4-1h-.3v4.4l.8,1c0-.1,0-.5-.1-1h0ZM91.9,111.6l-1.2-2.7v6.1l1.2,1.4v-4.8ZM235.8,114.5v4.5l.8-1v-4.4h-.3l-.5.9ZM120.4,183.6l.2-.1h0l-.2.1ZM78.1,172.1l.4.1v-2.5l-.4-.1v2.5ZM120.5,170.5l-.2.2.2-.2h0ZM79,172.3l2,.4v-2l-2-.5v2.1ZM120.5,171.8h0l-.2-.5-.7.1.9.4ZM117.5,170.5l-.2-.6-.9.1,1.1.5ZM68,170.2l1.4.3v-3l-1.4-.3v3ZM69.9,170.5l2.7.5v-2.4l-2.7-.7v2.6ZM78.3,161.2h-.8v-.4c0-1-.5-1.9-1.4-2.4-.3-.2-.7-.3-1.1-.3,1.4.2,2.4,1.4,2.3,2.8h0v.1q-.1.1-3.3.1h-1.3l-.1.5h2.2v6h-2.3l.6.2h1.7v.4h.1v-.4h2.4v1.1l.6.1.4.1v-7.9h0ZM77.3,167.6h-2.4v-6h2.4v6ZM64.3,169.5l3,.6v-2.7l-3-.7v2.8ZM62.5,169.1l1.3.3v-3.3l-1.3-.3v3.3ZM73.3,171.2l1,.2v-2.7l-1-.2v2.7ZM74.8,171.5l2.6.5v-2.2l-2.6-.6v2.3ZM57.9,168.2l3.6.7v-2.9l-3.6-.9v3.1ZM124.6,153.2l26.3.3-.2-.3h-26.1ZM211.8,134.2c0,.1.2.1.3.1.2,0,.5.1.6.2.6.4,1.4.4,2.1,0,.3-.2.6-.3.9-.2h.1s.1,0,.1-.1v-.2l-.9-2.1v-.8c0-.2-.1-.5-.4-.5h-1.2c-.2,0-.5,0-.7.2-.1.1-.1.2-.1.4v.9l-.9,2.1h.1ZM213,130.9h1.8v2.4h-1.8v-2.4ZM221.9,129l-1.1.8h2.2l-1.1-.8ZM176.6,146.5c-.3-.2-.7-.2-1,0-.1.1-.2.2-.3.4h1.6c0-.2-.1-.4-.3-.4ZM209.4,134.4h0l.7-1.8-.7,1.8ZM209.6,137.7h0l15.3-.3h-15.3l-2.8,3.1,2.8-2.8ZM221.9,151.7h-12.6l-2.6,2.3h0c-.7.1-1.3.1-2,.1h-25.9l-.3.4h0v.2h0v.2c-.1.3-.4,1.8-1,1.8-.4,0-.6-.4-.7-.8s-.2-.6-.4-.6-.3.3-.4.5-.3.8-.8.8c-.6,0-.8-1.4-.9-1.8v-.2h0v-.2h0l-.3-.4h-18l-.3.4h-.1v.2h.1v.2c0,.4-.3,1.8-.9,1.8-.4,0-.6-.4-.7-.8s-.2-.5-.4-.5-.3.3-.4.6-.3.8-.7.8c-.6,0-1-1.5-1-1.8v-.2h.1v-.2h0l-.3-.4h-27.9l-1.9-1.7-.7-.6h-12.7l5.1,3.7v-.2h3v2.3l2.7,1.9v-4.9c0-.6.2-1,.5-1s.6.6.6,1.7c0,1.2-.1,6-.1,6.1v.3l-.2-.2c-.2-.1-.5-.3-.8-.6-.5-.4-1.2-.9-1.6-1.2v1.3l5.5,3.8h6.2l-.1-7.1h-3.7l-.3-.8h4.7l-.2.7v7.2h5.9l-.1-7.1h-3.7l-.3-.8h4.7l-.2.7v7.2h5.9l-.1-7.1h-3.7l-.3-.8h4.7l-.2.7v7.2h5.9l-.1-7.1h-3.7l-.3-.8h4.7l-.2.7v7.2h3.3v-.4h3.7v.4h4.9l-.1-7.1h-3.7l-.3-.8h4.7l-.2.7v7.2h8.7v-7.2l-.2-.7h4.7l-.3.8h-3.7l-.1,7.1h4.9v-.4h3.7v.4h3.3v-7.2l-.2-.7h4.7l-.3.8h-3.7l-.1,7.1h5.9v-7.2l-.2-.7h4.7l-.3.8h-3.7l-.1,7.1h5.9v-7.2l-.2-.7h4.7l-.3.8h-3.7l-.1,7.1h5.9v-7.2l-.2-.7h4.7l-.3.8h-3.7l-.1,7.1h6.2l5.5-3.8v-1.3c-.8.6-2,1.5-2.4,1.8l-.2.2v-.3s-.1-4.9-.1-6.1c0-1,.2-1.7.6-1.7s.5.4.5,1v4.9l2.7-1.9v-2.3h3v.2l5.1-3.8ZM114.4,151.8h.3c.9-.1,1.7.6,1.8,1.5v.1h-.8v-.1c-.2-.6-.7-1.1-1.3-1.2l-1.1-.1,1.1-.2ZM116.1,154.9h-2.8l-.5-1.3h3.8l-.5,1.3ZM122.4,157.3l-.2-.1c-.1.1-.5.6-.5,4.3v.1h-.5v-4.7c0-.3,0-.5.1-.8s.3-.3.4-.3c.4,0,.7.6.7,1.2v.3ZM122.9,154.1c-.2,0-.3,0-.5.1-.1.1-.2.3-.2.5v.1h-1.1v-.1c0-.3.1-.7.3-.9.4-.3,1-.3,1.5-.1v.4ZM126.2,158.4h2.6v5.2h-2.6s0-5.2,0-5.2ZM132.5,158.4h2.6v5.2h-2.6v-5.2ZM138.7,158.4h2.6v5.2h-2.6v-5.2ZM145,158.4h2.6v5.2h-2.6v-5.2ZM125,156.7l.2-.2c.5-.8,1.3-1.8,1.6-1.6.1,0,.2.2.2.4,0,1,.9.9.9,0,0-.2.1-.4.2-.4h.1c.4,0,1,.9,1.5,1.6l.1.2h-4.8ZM131.3,156.7l.2-.2c.5-.8,1.3-1.8,1.6-1.6.1,0,.2.2.2.4,0,1,.9.9.9,0,0-.2.1-.4.2-.4h.1c.4,0,1,.9,1.5,1.6l.1.2h-4.8ZM137.5,156.7l.2-.2c.5-.8,1.3-1.8,1.6-1.6.1,0,.2.2.2.4,0,1,.9.9.9,0,0-.2.1-.4.2-.4h.1c.4,0,1,.9,1.5,1.6l.1.2h-4.8ZM143.8,156.7l.2-.2c.5-.8,1.3-1.8,1.6-1.6.1,0,.2.2.2.4,0,1,.9.9.9,0,0-.2.1-.4.2-.4h.1c.4,0,1,.9,1.5,1.6l.1.2h-4.8ZM154.7,163.6h-2.5v-.5h2.5v.5ZM157.3,158.4h2.6v5.2h-2.6v-5.2ZM172.7,163.6h-2.6v-5.2h2.6v5.2ZM156.2,156.7l.2-.2c.5-.8,1.3-1.8,1.6-1.6.1,0,.2.2.2.4,0,1,.9.9.9,0,0-.2.1-.4.2-.4h.1c.4,0,1,.9,1.5,1.6l.2.2h-4.9ZM165.1,156.5h0l-3.7-.2v-.3h7.5v.3l-3.8.2ZM169.1,156.7l.1-.2c.5-.8,1.1-1.6,1.5-1.6h.1c.1,0,.2.2.2.4,0,.9.9.9.9,0,0-.2.1-.4.2-.4.4-.1,1.1.8,1.6,1.6l.2.2h-4.8ZM177.8,163.6h-2.5v-.5h2.5v.5ZM185.1,163.6h-2.6v-5.2h2.6v5.2ZM181.5,156.7l.2-.2c.5-.8,1.1-1.6,1.5-1.6h.1c.1,0,.2.2.2.4,0,.9.9.9.9,0,0-.2.1-.3.2-.4.4-.1,1.1.8,1.6,1.6l.2.2h-4.9ZM191.4,163.6h-2.6v-5.2h2.6v5.2ZM197.7,163.6h-2.6v-5.2h2.6v5.2ZM203.9,163.6h-2.6v-5.2h2.6v5.2ZM187.7,156.7l.1-.2c.5-.8,1.1-1.6,1.5-1.6h.1c.1,0,.2.2.2.4,0,.9.9.9.9,0,0-.2.1-.3.2-.4.4-.1,1.1.8,1.6,1.6l.2.2h-4.8ZM194,156.7l.2-.2c.5-.8,1.1-1.6,1.5-1.6h.1c.1,0,.2.2.2.4,0,.9.9.9.9,0,0-.2.1-.3.2-.4.4-.1,1.1.8,1.6,1.6l.2.2h-4.9ZM200.3,156.7l.1-.2c.5-.8,1.1-1.6,1.5-1.6h.1c.1,0,.2.2.2.4,0,.9.9.9.9,0,0-.2.1-.3.2-.4h.1c.4,0,1,.9,1.6,1.6l.2.2h-4.9ZM208.9,161.6h-.5v-.1c0-3.7-.4-4.2-.5-4.3l-.2.1v-.3c0-.6.3-1.2.7-1.2.1,0,.3,0,.4.3.1.3.1.5.1.8v4.7ZM209,154.9h-1.1v-.1c0-.2,0-.4-.2-.5-.1-.1-.3-.2-.5-.1v-.3c.5-.2,1-.1,1.5.1.3.2.4.5.4.9h-.1ZM214.1,152.2c.5-.4,1.1-.5,1.6-.4l1,.2-1,.1c-.6.1-1.1.6-1.3,1.2v.1h-.8v-.1c0-.4.2-.8.5-1.1h0ZM214,154.9l-.5-1.3h3.7l-.5,1.3h-2.7ZM212.8,129.7h2.2l-1.1-.8-1.1.8ZM215.7,129.7l-1.9-1.9-1.9,1.9h.2l1.8-1.6,1.8,1.6h0ZM122.1,151.7l-1.3-1.2h-14.3l.3.2h14.2l1.1,1ZM174.5,169.2l.2-.1.1-.1h-19.5l.1.1c.1.1.2.1.2.2l18.9-.1ZM123.1,169.8l-.1,26.4h25.9v-2.8h.8v-22.6l-.2-1.7h-25.8c-.4,0-.6.3-.6.7h0ZM128.7,193.9h-.2c-.5,0-.6.2-.9.6-.2.5-.6.8-1.1.9h-.1c-.5,0-1-.4-1.1-.9-.2-.4-.4-.7-.9-.6h-.2v-.6h4.5v.6h0ZM124.6,187.1v-.5h3.8v.5h-.6v5.9h-2.6v-5.9h-.6ZM129.3,185.1l-.3-.1h-.4c-1,0-1.1,0-1.2-.1v-.1l.1-.1h.3l-1.3-.6-1.3.6c.2,0,.3,0,.4.1v.1l-.1.2h-2.2l3.2-1.6h.1l1.2.6,1.2.6q.1,0,.1.1v.1h.1-.1l.2.2ZM124.6,174.1v-.5h3.8v.5h-.6v5.9h-2.6v-5.9h-.6ZM128.8,180.3v.6h-.3c-.4,0-.5.2-.8.6-.2.5-.6.8-1.1.9h-.1c-.5,0-1-.4-1.1-.9-.2-.4-.4-.7-.9-.6h-.2v-.6h4.5ZM135.1,193.9h-.1c-.5,0-.6.2-.9.6-.2.5-.6.8-1.1.9h-.1c-.6,0-.9-.5-1.1-.9s-.4-.7-.9-.6h-.2v-.6h4.5v.6h-.1ZM131,187.1v-.5h3.8v.5h-.6v5.9h-2.6v-5.9h-.6ZM141.5,193.9h-.2c-.5,0-.6.2-.9.6-.2.5-.6.8-1.1.9h-.1c-.6,0-.9-.5-1.1-.9s-.4-.7-.9-.6h-.2v-.6h4.5v.6ZM137.4,187.1v-.5h3.8v.5h-.6v5.9h-2.6v-5.9h-.6ZM147.9,193.9h-.2c-.5,0-.6.2-.9.6-.2.5-.6.8-1.1.9h-.1c-.6,0-.9-.5-1.1-.9s-.4-.7-.9-.6h-.2v-.6h4.5v.6ZM143.8,187.1v-.5h3.8v.5h-.6v5.9h-2.6v-5.9h-.6ZM145.6,170.3h0l1.5.8,1,.5q.1,0,.1.1v.1h.1-.1v.1l-.3-.1h-.4c-1,0-1.1,0-1.2-.1l-.1-.1.1-.1h.3l-1.3-.6-1.3.6c.2,0,.3,0,.4.1l.1.1-.1.2h-2.1l3.3-1.6ZM143.7,174v-.5h3.8v.5h-.6v5.9h-2.6v-5.9h-.6ZM147.9,180.3v.6h-.3c-.4,0-.5.2-.8.6-.2.5-.6.8-1.1.9h-.1c-.6,0-.9-.5-1.1-.9s-.4-.7-.9-.6h-.2v-.6h4.5ZM145.6,183.3h0l1.6.8.9.5q.1,0,.1.1v.1h.1-.1v.2l-.3-.1h-.4c-1,0-1.1,0-1.2-.1l-.1-.1.1-.1h.3l-1.3-.6-1.3.6c.2,0,.3,0,.4.1l.1.1-.1.2h-2.2l3.4-1.7ZM139.3,170.3h0l1.5.8,1,.5q.1,0,.1.1v.1h.1-.1v.1l-.3-.1h-.4c-1,0-1.1,0-1.2-.1v-.1l.1-.1h.3l-1.3-.6-1.3.6c.2,0,.3,0,.4.1l.1.1-.1.2h-2.2l3.3-1.6ZM137.4,174v-.5h3.8v.5h-.6v5.9h-2.6v-5.9h-.6ZM141.5,180.3v.6h-.3c-.4,0-.5.2-.8.6-.2.5-.6.8-1.1.9h-.1c-.6,0-.9-.5-1.1-.9s-.4-.7-.9-.6h-.2v-.6h4.5ZM139.3,183.3h0l1.6.8.9.5q.1,0,.1.1v.1h.1-.1v.2l-.3-.1h-.4c-1,0-1.1,0-1.2-.1v-.1l.1-.1h.3l-1.3-.6-1.3.6c.2,0,.3,0,.4.1l.1.1-.1.2h-2.2l3.3-1.7ZM132.9,170.3h0l1.6.8,1,.5q.1,0,.1.1v.1h.1-.1v.1l-.3-.1h-.4c-1,0-1.1,0-1.2-.1v-.1l.1-.1h.3l-1.3-.6-1.3.6c.2,0,.3,0,.4.1v.1l-.1.2h-2.2l3.3-1.6ZM131,174v-.5h3.8v.5h-.6v5.9h-2.6v-5.9h-.6ZM135.1,180.3v.6h-.2c-.4,0-.5.2-.8.6-.2.5-.6.8-1.1.9h-.1c-.6,0-.9-.5-1.1-.9s-.4-.7-.9-.6h-.2v-.6h4.4ZM132.9,183.3h0l1.6.8.9.5q.1,0,.1.1v.1h.1-.1v.2l-.3-.1h-.4c-1,0-1.1,0-1.2-.1v-.1l.1-.1h.3l-1.3-.6-1.3.6c.2,0,.3,0,.4.1v.1l-.1.2h-2.2l3.4-1.7ZM126.6,170.3l1.5.8,1,.5q.1,0,.1.1v.1h.1-.1v.1l-.3-.1h-.3c-1,0-1.1,0-1.2-.1v-.1l.1-.1h.3l-1.3-.6-1.3.6c.2,0,.3,0,.4.1v.1l-.1.2h-2.2l3.3-1.6h0ZM179.4,196.2v-2.8h.5v-22.7l.2-1.7h-2.8v.8h2l-.1.2c-.1.4-.4.8-.7.8-.2,0-.4-.1-.5-.3h-.1c-.2.1-.4.7-.4,1v15.4h1.7v.6h.6v.8h-5.6v-.9h.9v-.6h1.1v-15.3c0-.3-.2-.9-.4-1h-.2c-.1.1-.3.2-.5.2-.3-.1-.5-.4-.6-.8l-.1-.2h1.9v-.7h-.1v.3h-1.3l-.4.3h0c-.2.1-1.3.1-6.5.1h-2.9v.2l-.2-.2-.1.1v-.1h-9.4l-.4-.3h-1.3v-.4h-.2v.7h2l-.2.6c-.1.2-.2.3-.4.4-.2,0-.4,0-.5-.2h-.2c-.2.1-.4.7-.4,1v15.3h1.1v.6h.9v.9h-5.6v-.8h.6v-.6h1.7v-15.4c0-.3-.2-1-.4-1.1h-.1c-.1.3-.5.4-.7.2l-.3-.3-.3-.7h2.1v-.6h-2.8l.2,1.7v22.7h.5v2.8h5.7v-9.4c0-1.2.9-2.2,2.1-2.2h.1c1.2-.1,2.2.8,2.2,2v8.3l-.4.5v.9h2.8v-.9l-.4-.4v-8.1c0-1.2,1-2.2,2.2-2.2s2.2,1,2.2,2.2v8.1l-.4.4v.9h2.8v-.9l-.4-.4v-8.1c0-1.2.9-2.1,2-2.2h.2c1.2-.1,2.2.8,2.2,2v9.6l5.8-.1ZM162.1,182.7h-.3l-.1-5.3c-.1-2.4-1.6-3.9-2.8-3.9h-.1c-1.2.1-2.3,1.5-2.1,5.3,0,2.4,0,3.3-.1,3.7v.1h0c0,.2-.1.2-.1.2h0q-.1,0-.1-.2h0v-.1c0-.4-.1-1.5-.1-4.1v-4.8c-.4-1.6.6-3.2,2.3-3.6,1.6-.4,3.2.6,3.6,2.3.1.4.1.9,0,1.3l-.1,9.1ZM167.9,180.7h-.4v2h-.6v-2.5h.6v-4.8h-.1l-.7,1.9h0v3.3h-3.4v-3.3h0l-.7-1.9h0v4.7h.6v2.5h-.6v-2h-.4v-7.1c0-1,.3-1.9,1-2.7.5-.5,1.2-.8,1.9-.8h0c1.7.2,3,1.8,2.8,3.5v7.2ZM173.5,182.6h0c0-.5-.1-1.5-.1-3.8.2-3.8-1-5.3-2.1-5.3s-2.8,1.5-2.9,3.9l-.1,5.3h-.3v-9c-.4-1.6.7-3.2,2.3-3.6s3.2.7,3.6,2.3c.1.4.1.9,0,1.3v9h0c0,.2-.1.2-.1.2,0,0-.3-.1-.3-.3ZM253.6,100.4h4.6l-2.3-1.6-2.3,1.6ZM212.6,170.5l1.1-.5-.9-.1-.2.6ZM209.6,183.5l.2.1-.2-.1h0ZM209.7,170.5h0l.2.1-.2-.1ZM210.5,171.4l-.7-.1-.2.5.9-.4ZM207.2,196.2l-.1-26.4c0-.4-.3-.7-.6-.8h-25.8l-.2,1.8v22.6h.8v2.8h25.9ZM186.8,193.9h-.2c-.5,0-.6.2-.9.6-.2.5-.6.8-1.1.9h-.1c-.6,0-.9-.5-1.1-.9s-.4-.7-.9-.6h-.2v-.6h4.5v.6ZM182.6,187.1v-.5h3.8v.5h-.6v5.9h-2.6v-5.9h-.6ZM193.1,193.9h-.1c-.5,0-.6.2-.9.6-.2.5-.6.8-1.1.9h-.1c-.6,0-.9-.5-1.1-.9s-.4-.7-.9-.6h-.2v-.6h4.5l-.1.6ZM189,187.1v-.5h3.8v.5h-.6v5.9h-2.6v-5.9h-.6ZM193.6,184.9h-1.2c-.5,0-.6,0-.6-.1v-.1l.1-.1h.3l-1.3-.6-1.3.6h.4v.4h-2.2l3-1.6q.1,0,1.9.9l.7.4h.1v.1h.1v.1ZM189,174v-.5h3.8v.5h-.6v5.9h-2.6v-5.9h-.6ZM193.1,180.3v.6h-.2c-.4,0-.5.2-.8.6-.2.5-.6.8-1.1.9h-.1c-.6,0-.9-.5-1.1-.9s-.4-.7-.9-.6h-.2v-.6h4.4ZM199.5,193.9h-.2c-.5,0-.6.2-.9.6-.2.5-.6.8-1.1.9h-.1c-.6,0-.9-.5-1.1-.9s-.4-.7-.9-.6h-.2v-.6h4.5v.6ZM195.4,187.1v-.5h3.8v.5h-.5v5.9h-2.6v-5.9h-.7ZM199.9,184.9h-1.8v-.4h.4l-1.3-.6-1.3.6h.4v.4h-2.2l3-1.6q.1,0,1.9.9l.7.4h.7l-.5.3h0ZM195.4,174v-.5h3.8v.5h-.5v5.9h-2.6v-5.9h-.7ZM199.5,180.3v.6h-.3c-.4,0-.5.2-.8.6-.2.5-.6.8-1.1.9h-.1c-.5,0-1-.4-1.1-.9-.2-.4-.4-.7-.9-.6h-.2v-.6h4.5ZM205.9,193.9h-.2c-.5,0-.6.2-.9.6-.2.5-.6.8-1.1.9h0c-.5,0-1-.4-1.1-.9-.2-.4-.4-.7-.9-.6h-.2v-.6h4.5l-.1.6ZM201.8,187.1v-.5h3.8v.5h-.6v5.9h-2.6v-5.9h-.6ZM206.4,184.9h-1.9v-.4h.4l-1.3-.6-1.3.6h.4v.4h-2.2l3-1.6q.1,0,1.9.9l.7.4h.7l-.4.3h0ZM201.8,174v-.5h3.8v.5h-.6v5.9h-2.6v-5.9h-.6ZM205.9,180.3v.6h-.3c-.4,0-.5.2-.8.6-.2.5-.6.8-1.1.9h-.1c-.5,0-1-.4-1.1-.9-.2-.4-.4-.7-.9-.6h-.2v-.6h4.5ZM205.4,171.2c.3.2.6.3.8.4h.8l-.6.2h-1.9v-.4h.4l-1.3-.6-1.3.6h.4v.4h-2.2l3-1.6q.1.1,1.9,1h0ZM199.1,171.2l.7.4h.8l-.6.2h-1.8v-.4h.4l-1.3-.6-1.3.6h.4v.4h-2.2l3-1.6q.1.1,1.9,1h0ZM190.8,170.3q.1,0,1.9.9l.7.4h.7l-.5.2h-1.8v-.4h.4l-1.3-.6-1.3.6h.4v.4h-2.2l3-1.5ZM184.4,170.3q.1,0,1.9.9l.8.4h.1v.1h.1-1.4c-.5,0-.6,0-.6-.1v-.1l.1-.1h.3l-1.3-.6-1.3.6h.5v.4h-2.2l3-1.5ZM182.6,174v-.5h3.8v.5h-.6v5.9h-2.6v-5.9h-.6ZM186.8,180.3v.6h-.3c-.4,0-.5.2-.8.6-.2.5-.6.8-1.1.9h-.1c-.6,0-.9-.5-1.1-.9s-.4-.7-.9-.6h-.2v-.6h4.5ZM184.4,183.4q.1,0,1.9.9l.7.4h.7l-.5.2h-1.9v-.4h.4l-1.3-.6-1.3.6h.4v.4h-2.2l3.1-1.5ZM220.6,131.9l-.9,2.1v.2l.1.1c.4,0,.7.1,1,.3s.6.3.9.3.7-.1.9-.3c.2-.1.5-.2.7-.3.3,0,.5,0,.6-.1v-.3l-.9-2.1v-.2c0-.3,0-.8-.2-1q-.1-.1-.2-.1h-.7c-.5,0-1-.1-1.2.1-.1.1-.1.2-.1.4v.9ZM220.9,130.9h1.8v2.4h-1.8v-2.4ZM232.7,117.7v4.4l1.3-1.5v-3.1l.1-.2-1.2-.2-.2.6ZM236,112.3l.3.3.1-.3-.5-.5-1.6,3.2.5.6.4-.9-.5.2,1.3-2.6ZM155.4,154h-3.6l.1.2h3.5v-.2ZM266.1,107.6c-.1.2-.1.4,0,.6.2.2.4.2.6.2h0c.4.1.9.2,1.2.5.5.3,1,.5,1.6.5s1.2-.1,1.6-.5c.4-.2.8-.4,1.2-.5h.1c.4,0,.8,0,.9-.2s.1-.4,0-.6l-1.5-3.6v-.4c0-.6,0-1.5-.3-1.8-.1-.1-.3-.2-.5-.2h-2.8c-.2,0-.4.1-.5.2-.4.4-.3,1.2-.3,1.8v.5l-1.3,3.5ZM268.4,102.3h3v4h-3v-4ZM251.1,170.2l-2,.5v2l2-.4v-2.1ZM259.4,100.4l-3.6-3.6-3.6,3.6h.7l3-2.7,3,2.7h.5ZM243,201.2h1.7l42.9,5.3v-47.1l-3.4.8v-11.2h.5l3.5-4.2-1.5-1.9h-2.5v-24.3l4.2-2.8h-.3c-.4,0-21.6,0-34.2.1h-10.5l-12.9,12.6,12.7-11.9h40.4l4.3-.7-4.1,2.7h-40.4l-14.4,12.8v1.1h-.2l-1.1-.2-2.4-.4h0l1.9,2.4,1.8,1v1.8h0v14.9l14.5-8.5h7.9v-13.3l-.7-.8v-.7l-.5-1.3h10.2l-.5,1.5h-7.8v14.7h16.6v-13.3l-.7-.8v-.8l-.5-1.3h10.2l-.5,1.5h-7.8v14.7h17.4l1,1.2-.2.1h-44.2l-17.2,10.5,17.2-10.4h44.5l-3,3.7h-41.4c-5.1,2.8-14,7.7-21.9,12-5.2,2.8-10,5.5-13.3,7.3-.2.2-.4.5-.4.8l.1,27.5,1,.1h.3v-10.6l1.7-.2v11.1l1,.1v-11.4h.1l2.5-.3v12l1,.1v-12.3l2.4-.3v12.8l1,.1v-13.1l2.4-.3v13.6l1,.1v-13.8h.1l2.5-.3v14.5l1,.1v-14.8h.1l2.9-.4v15.5l1.9.2v-16h.1l2.7-.3v16.7l1,.1v-17h.1l2.6-.3v17.6l1,.1v-17.7h.1l3-.4v18.6l1.8.2h1.4v.5h-.6c-1.3,0-2.7-.2-4-.4-.6-.1-1.2-.1-1.6-.2h0l-30.9-3.7h-85.3l-11.3,1.4c-10.3,1.2-23.1,2.8-24.2,2.9h-1.4v-.5h1.4l1.8-.2v-18.6l3.1.4v17.9l1-.1v-17.6l2.7.3v17l1-.1v-16.8l2.9.4v16l1.9-.2v-15.5l3,.4v14.8l1-.1v-14.5l2.7.3v13.8l1-.1v-13.7l2.4.3v13.1l1-.1v-12.8l2.4.3v12.2l1-.1v-12l2.6.3v11.4l1-.1v-11.1l1.7.2v10.7h.3l1-.1.1-27.5c0-.3-.1-.6-.4-.8-3.4-1.8-8.3-4.6-13.6-7.5-7.8-4.3-16.6-9.1-21.7-11.9h-41.4l-3-3.7h44.5l17.9,10.7c-6.8-4.2-13.8-8.4-18-11h-44.4l1.1-1.2h17.3v-14.7h-7.8l-.5-1.5h10.2l-.5,1.3v.8l-.7.8v13.3h16.7v-14.7h-7.8l-.5-1.5h10.1l-.5,1.3v.8l-.7.8v13.3h7.9l14.5,8.5v-14.7h0v-1.8h.1l1.7-1,1.9-2.4-1.6.2-2.1.3v-1.1l-14.4-12.9h-40.5l-4-2.7,4.3.7h40.3l12.8,11.8-12.9-12.6-40.5-.2h-4.8l9.5-7.2,5.7-7.3-.3.2-.2-.2,4-3.6,3,2.7h.6l-3.6-3.6.1-.1,13.5-18.8,11.1,33,3.9,5,16.1,16,1.1-1.4-.1-.2,2.3-2.1,1.8,1.6h.1l-2.4-2.1.1-.1,5.6-10.4.5,1.2.1-.1,4.8,7.9,7.9,16.3-.2.1h0l3.5.7h21.9c1,0,1.3,1.1,1.4,1.7,0,.1.1.3.1.4.3.3.8.3,1.2,0,.2-.2.5-.4.9-.4h2.7l-.7,2.9c-.2.9-1,1.4-1.9,1.2h-.1l-.3-1.2c-.1-.6-.7-.6-1.5-.6h-.4v2.5h-.2l-26.9.1.9-3.3-6.8-7.8h-18.3l-.3-.2v8.1l3.8,2.7h15.7l2.8,2.7h38.2c-.1-.2-.1-.4-.1-.6v-.2h6v.2c0,.2,0,.4-.1.6h38.2l2.9-2.7h15.5l3.8-2.7v-8.1l-.3.2h-18.3l-6.8,7.8.9,3.3h-.2l-26.9-.1v-2.5h-1.3c-.5,0-.7.6-.9,1.4,0,.1-.1.2-.1.3v.1h-.1c-.9.2-1.7-.3-1.9-1.2h0l-.4-2.7h2.6c.3,0,.6.2.8.3.4.2.7.4,1.2,0,0-.1.1-.3.1-.4.1-.6.4-1.7,1.4-1.7h21.9l3.4-.7h0l-.2-.1,7.9-16.3,4.8-7.9.1.1.5-1.2,5.7,10.5-.1.1-2.3,2h.1l1.8-1.6,2.3,2.1-.1.2,1.1,1.4.1-.1,16.1-15.9,3.9-5,11.1-33,.2.2,13.4,18.7-.1.1-3.5,3.5h.6l3-2.7.1.1,3.9,3.5-.2.2-.3-.2,5.8,7.3,9.5,7.2.5-.3-9.8-7.3-5.1-6.6.2-.5-4.3-4.7-14.1-19.8-8.5,10.5-8.6,18.4h-.8l-1.9,4.8h-1.1l-1.4,3.6h-1.9l-2.1,5.4h1.8v1.9l-2.3,5v.7l-4.2,4.1-.6-1.1-1.9-2.7-6-11-5.9,9.7-7.9,16.4-2.9.6h-22c-.6-.2-1.3-.4-1.9-.4s-1.6.3-1.9,2.1h-1.6l-.1-.5h1.3l1.2-1.6h-4.8c-1.3-1-2.8-1.7-4.4-1.9h-1.2c-1.6.3-3.1,1-4.3,1.9h-4.8l1.2,1.6h1.2l-.1.5h-1.6c-.2-1.8-1.2-2.1-1.9-2.1s-1.3.1-1.9.4h-21.9l-3-.6-8-16.4-5.9-9.6-5.9,11-1.9,2.8-.6,1.1-4.2-4.1v-.7l-2.3-5v-1.9h1.8l-2.1-5.4h-1.9l-1.4-3.6h-1.2l-1.9-4.8h-.8l-8.7-18.5-8.2-10.4-14.1,19.5-4.3,4.7.2.5-5,6.5-10,7.4,4.8,3.2v24.3h-2.5l-1.4,1.9,3.5,4.2h.5v11.2l-3.4-.8v47.1l42.9-5.3h1.7l35.6-4.3,42.4.2,42.2-.2,35.8,4.4ZM255.3,141.7h-2.4v-6h2.4v6ZM255.3,135.6h-2.4v-6h2.4v6ZM257.8,141.7h-2.4v-6h2.4v6ZM257.8,135.6h-2.4v-6h2.4v6ZM272.6,141.7h-2.4v-6h2.4v6ZM272.6,135.6h-2.4v-6h2.4v6ZM275.2,141.7h-2.4v-6h2.4v6ZM275.2,135.6h-2.4v-6h2.4v6ZM232.5,137.9l.2-.2v9l-1.2.8v2l-.4.2v-4.5c0-2.2.1-4.2-.1-6.8-.2-.8.2-1.2,1-1.7.4-.3.7-.5,1.1-.9l.2-.2v.3c.1.7-.3,1.4-1,1.8-.2.2-.5.4-.7.5v.4l.9-.7ZM230.9,137.5l.1-.4c.5-3.1.7-3.3.8-3.3h0c.2,0,.2.2.2.6,0,.3,0,.6.1.9.1-.5.2-.9.2-1.4,0-.4,0-.6.2-.6s.3,0,.8,2.2v.1l-2.4,1.9ZM236.6,134.6v9.5l-1.4.9v2l-.4.3v-10.8l-.2-.5h0c0-.4,0-.9-.1-1.3v-.1l2.7-2.2v.3c0,.8-.4,1.6-1.2,1.9-.3.2-.6.4-.9.7v.4l1.5-1.1ZM237.2,132.3l-2.4,2-.3.3.1-.4c.6-3.5.8-3.5,1-3.5s.2.2.2.6c0,.3,0,.7.1,1,.2-.5.3-1.1.2-1.6,0-.4,0-.6.2-.7s.4-.1,1,2.2v.1h-.1ZM240.7,131.4v10l-1.6,1v2.2h-.1l-.1.1-.2.1v-11.4l-.2-.5h0c0-.4,0-.9-.1-1.3v-.1l.1-.1,2.6-2.1.2-.2v.3c0,1.1-.5,1.5-1.3,2.1-.4.2-.7.5-1,.8v.5l1.7-1.4ZM241.4,128.8l-3,2.5.1-.4c.6-3.5.9-3.7,1-3.7h0c.2,0,.2.2.2.6s0,.7.1,1.1c.3-.5.4-1.1.3-1.7,0-.4,0-.7.2-.7s.4,0,1,2.3h.1ZM244.8,143.1h-1.3l-.9.6-.2-.4,1-.6h1.5l-.1.4ZM244.8,141.6h-1.3l-.9.6-.2-.4,1-.6h1.5l-.1.4ZM244.8,140h-1.3l-.9.6-.2-.4,1-.6h1.5l-.1.4ZM244.8,138.5h-1.3l-.9.6-.2-.4,1-.7h1.5l-.1.5ZM244.8,136.9h-1.3l-.8.6-.2-.4.9-.6h1.5v.4h-.1ZM244.8,135.4h-1.3l-.9.6-.2-.4,1-.7h1.5l-.1.5ZM244.8,133.8h-1.3l-.8.6-.2-.4.9-.7h1.5l-.1.5ZM244.8,132.3h-1.3l-.8.6-.2-.4.9-.7h1.5l-.1.5ZM244.8,130.7h-1.3l-.8.6-.2-.4.9-.6h1.5l-.1.4ZM244.8,129.2h-1.3l-.9.7-.2-.4,1-.7h1.5l-.1.4ZM244.8,127.6h-1.3l-.9.6-.2-.4,1-.7h1.5l-.1.5ZM244.8,126.1h-1.3l-.8.7-.3-.4.9-.8h1.5v.5h0ZM244.8,124.5h-1.3l-.8.7-.3-.4.9-.8h1.5v.5h0ZM244.8,123h-1.3l-.8.7-.3-.4.9-.8h1.5v.5h0ZM244.8,121.4h-1.3l-.8.7-.3-.4.9-.8h1.5v.5h0ZM244.8,119.9h-1.3l-.8.7-.3-.4.9-.8h1.5v.5h0ZM250.2,127.1l.1-.2c.6-.9,2.6-3.9,3.4-3.6.3.1.3.6.3.8,0,1.1.6,1.7,1.2,1.7s1.2-.5,1.2-1.8c0-.1,0-.6.3-.7h.1c.9,0,2.8,2.8,3.4,3.7l.2.2-10.2-.1ZM267.5,127.1l.1-.2c.6-.9,2.6-3.9,3.4-3.6.4.1.4.6.4.8,0,1.1.6,1.7,1.2,1.7s1.2-.5,1.2-1.8c0-.1,0-.6.3-.7h.1c.9,0,2.8,2.8,3.4,3.7l.2.2-10.3-.1ZM244.7,197.8h-1.4l-1-.1v-.5l1,.1h1.4v.5ZM242.4,190.1v-.5h2.4v.5h-2.4ZM244.7,191.1v.5h-2.4v-.5h2.4ZM244.6,188.5c-.7,0-1.3,0-2,.1h-.2v-.5h.1c.7-.1,1.4-.1,2.1-.1h.1v.5h-.1ZM244.6,187h-2.2v-.5h2.3v.5h-.1ZM244.6,185.4c-.7,0-1.3,0-2,.1h-.2v-.5h.1c.5-.1,1.6-.1,2.1-.1h.1v.5h-.1ZM244.6,183.9c-.7,0-1.3,0-2,.1h-.2v-.5h.1c.7-.1,1.4-.1,2.1-.1h.1v.5h-.1ZM244.7,196.2h-2.4v-.5h2.4v.5ZM244.7,194.7h-2.4v-.5h2.3l.1.5ZM252.7,199.7v2l-4.3-.5v-.2c-.1-4.4-.1-7.7-.1-11.6v-4.4c0-3.5,1-6.3,2.2-6.5.3,0,.6.1.8.3.9.8,1.5,3.1,1.5,5.9v2.9c0,9.5,0,11.6-.1,12.1h0ZM259.4,202.3v.2l-5.5-.6v-.1c0-1,0-2-.1-3v-14c0-4.5,1.6-6.9,3.1-6.9h0c1.2,0,2.6,1.7,2.7,6.5,0,2.1-.1,15.8-.2,17.9h0ZM267.4,203.2v.2l-5.9-.7v-.1c0-1.1,0-2.2-.2-3.3v-15.3c0-4.9,1.7-7.5,3.3-7.5h0c1.3,0,2.8,1.9,2.9,7,0,2.6,0,17.5-.1,19.7h0ZM276.2,204.2v.2h-.2l-5.9-.7h-.1v-.1c0-1.2,0-2.4-.2-3.6v-16.5c0-5.3,1.8-8.1,3.4-8.1h0c1.4,0,3,2,3.1,7.6,0,2.7,0,18.8-.1,21.2h0ZM286.6,205.3v.2l-7.5-.9v-.1c0-1.3,0-2.6-.2-3.9v-17.9c0-4.6,1.8-8.6,3.9-8.9.6-.1,1.2.1,1.7.5,1.4,1.2,2.3,4.3,2.3,7.8,0,3.1-.1,20.7-.2,23.2ZM245.8,173.3l2.6-.5v-2.9l2.7-.7v-10.2h.6v1.4h.1c.1-.6.3-1.2.6-1.8h-3.4l6.2-4.4.1.1,6.2,4.4h-3.5c.4.5.6,1.1.7,1.8h.6v.8h-1.3v-.4c.1-1.4-1-2.7-2.5-2.7h-.2c-1.4,0-2.6,1.1-2.6,2.6v.6h-.8v7.9l.2-.1h.1l.6-.2v-1.1h2.4v.5h.1v-.5h1.7l.6-.1h-2.3v-6h2.4v5.9l11-2.7v-6h.6v1.4h.1c.1-.6.3-1.2.6-1.8h-3.6l6.2-4.4.1.1,6.2,4.4h-3.6c.4.5.6,1.1.7,1.8h.6v.8h-1.3v-.4c.1-1.3-.8-2.4-2-2.7.4.1.7.3.9.6.6.6.9,1.4.9,2.3v.2h-4.9v-.2c0-.8.3-1.7.9-2.3.3-.3.6-.5.9-.6-1.2.3-2.1,1.4-2,2.7v.4h-.8v3.6l1-.3v-2.8h2.4v2.2h.1v-2.1h2.4v1.5l11.9-3v.6h-.1l-4.5,1.1v.1l4.7-1.1v.5h-.1l-4.6,1.1v3.7l4.7-.9v.9h-.1l-40.9,7.9v26.7h-.1q-.2,0-.2-.5v-26.2h0v-1ZM254.4,161.1h-1.4v-.1h-.2c0-2,1.3-2.9,2.5-2.9h0c1.2,0,2.4.9,2.5,2.9h0v.1c0,.1-.1.1-1.4.1l-2-.1ZM255.3,161.6v6h-2.4v-6h2.4ZM244.6,193.2h-2.2v-.5h2.3v.5h-.1ZM243.3,157h1.4v.5h-1.4l-.9.5-.2-.5,1.1-.5ZM242.5,156.4l-.2-.5,1-.5h1.4v.5h-1.4l-.8.5ZM244.7,158.6v.5h-1.4l-.9.4-.2-.5,1-.5h1.5v.1ZM243.3,160.1h1.4v.5h-1.4l-.9.5-.2-.5,1.1-.5ZM243.3,161.7h1.4v.5h-1.4l-.9.4-.2-.5,1.1-.4ZM243.3,163.2h1.4v.5h-1.4l-.9.4-.1-.5,1-.4ZM244.7,164.8v.5h-1.4l-.9.3-.1-.5,1-.3h1.4ZM243.3,166.3h1.4v.5h-1.4l-.9.4-.1-.5,1-.4ZM243.3,167.9h1.4v.5h-1.4l-.9.3-.1-.5,1-.3ZM243.3,169.4h1.4v.5h-1.4l-.9.3-.1-.5,1-.3ZM244.7,171v.5h-1.4l-.9.3-.1-.5,1-.3h1.4ZM243.3,172.5h1.4v.5h-1.4l-.9.3-.1-.5,1-.3ZM244.7,174.1v.5h-1.4l-.9.2-.1-.5h.1c.7-.2,1.3-.2,2-.2h.3ZM243.3,175.6h1.4v.5h-1.4l-.9.2-.1-.5,1-.2ZM243.3,177.2h1.5v.5h-1.4l-.9.2-.1-.5.9-.2ZM243.4,152.4h1.4v.5h-1.4l-.9.5-.2-.5,1.1-.5ZM242.4,151.4l1-.5h1.4v.5h-1.4l-.9.5-.1-.5ZM243.4,149.3h1.4v.4h-1.4l-.9.5-.2-.5,1.1-.4ZM243.4,154h1.4v.5h-1.4l-.9.5-.2-.5,1.1-.5ZM239.2,154.5h1.5l1.8,2.2h-1.7l-1.3-1.2-1.6,3.2-.3-.1,1.6-4.1ZM238.4,172.3l3.1-.8v.7h-.1c-.3,0-.5.6-.6,1.2s-.3,1.3-.8,1.4h-.1c-.1,0-.2,0-.3-.1-.3-.3-.5-.8-.6-1.2s-.2-.6-.2-.6h-.2l-.2.1v-.7ZM238.4,158.6l1.2-2.7,1.7,1.3-1.4-.2-.4,1-1.1.6ZM241.4,170.7l-3,.8v-12.3l3.1-1.3-.1,12.8h0ZM235.1,157h1.3l1.5,1.8h-1.5l-1-1-1.3,2.6-.3-.1,1.3-3.3ZM237.4,172.9c0,.1,0,.2-.1.3,0,.1-.1.1-.2.1-.2.2-.3.5-.3.8-.1.9-.5,1.6-.9,1.6h0c-.3,0-.6-.2-.8-1.2-.1-.4-.2-.5-.2-.6h-.1l-.2.1v-.7h.1l1.8-.5.8-.2v.2q.1,0,.1.1h0ZM235.6,159.1l-.3.8-1,.5,1-2.3,1.5,1.2-1.2-.2ZM237.4,159.7v12.1l-2.7.7v-11.6l2.7-1.2ZM231.4,158.8h1.2l1.4,1.7h-1.4l-.9-.9-1.2,2.3-.3-.1,1.2-3ZM231,174.2h.1l1.8-.5.8-.2v.6h-.1c-.2,0-.3.2-.4.8-.1.9-.4,1.5-.9,1.5h0c-.2,0-.6-.2-.7-1.2-.1-.4-.2-.5-.2-.5h-.1l-.2.1-.1-.6ZM230.6,162l1-2.1,1.4,1.1-1.1-.2-.3.8-1,.4ZM230.9,173.5v-11l2.7-1.2v11.5l-2.7.7ZM226.3,161h1.3l1.5,1.8h-1.5l-1-.9-1.3,2.5-.3-.1,1.3-3.3ZM225.8,175.5h.1l2.8-.7h.2v.6h-.1c-.2,0-.4.1-.5.8-.1.8-.5,1.4-1,1.4h0c-.2,0-.6-.1-.8-1.1,0-.2-.1-.4-.2-.5h-.2l-.2.1-.1-.6ZM225.6,164.4l1-2.2,1.5,1.1-1.2-.2-.3.8-1,.5ZM228.8,174.1l-3,.8v-10.2l3.1-1.4v10.7l-.1.1ZM222.6,163h1.1l1.3,1.6h-1.3l-.8-.8-1.1,2.2-.3-.1,1.1-2.9ZM224.8,176.1v.3c0,.1-.1.1-.2.1-.2.2-.3.4-.3.7-.1.8-.4,1.3-.8,1.3h0c-.2,0-.5-.1-.7-1-.1-.3-.1-.4-.2-.4h-.1l-.2.1v-.6l2.5-.6v.2-.1ZM223.1,164.8l-.3.7-.9.4.9-2,1.4,1-1.1-.1ZM224.8,165.2v10l-2.5.7v-9.6l2.5-1.1ZM219.2,164.7h1.1l1.3,1.6h-1.3l-.8-.8-1.1,2.2-.3-.1,1.1-2.9ZM218.8,177.3h.1l1.5-.4.9-.2v.6h-.1c-.2,0-.3.5-.4.9s-.3,1-.6,1h-.3c-.2-.1-.3-.4-.4-.8s-.1-.5-.3-.6,0,0-.1,0l-.2.1v-.6h-.1ZM218.5,167.7l.9-2,1.4,1.1-1.1-.2-.3.7-.9.4ZM218.8,176.9v-9.1l2.5-1.1v9.5l-2.5.7ZM209.4,169.9h.9l1,1.3h-1l.3.2.1-.1v7.8l-1.7.5v-7.4l-.2.1.3-.7-.3.7-.3-.1.9-2.3ZM210.8,179.4v.6h-.1c-.1,0-.2.5-.2.7-.1.4-.2.8-.5.8h-.2c-.2-.1-.2-.4-.3-.7,0-.2-.1-.3-.2-.5l-.2.1v-.6l1.7-.4ZM210.3,184l.4.3-1-.1-.2.5-.8.4.3-.8-.3.7-.3-.1.8-2.2h.9l1,1.3h-.8ZM213.3,183.6h0l.5.4-1-.2-.2.6-.8.4.8-1.8.6.5-.6-.6-.9,1.8-.3-.1,1-2.5h1l1.2,1.4-1.3.1ZM214.3,178.8v.2c0,.1-.1.1-.2.1s-.2.4-.3.7c-.1.5-.3.9-.6,1h-.1c-.3,0-.5-.4-.6-.7s-.2-.5-.3-.5h-.2q-.1-.1-.1-.2v-.2h.1l1.5-.4.9-.2-.1.2s0-.1,0,0h0ZM213.4,169.7l.4.3.5-.2v8.3l-2.5.7v-7.9h0l.8-1.8.6.5-.6-.6-1,1.9-.3-.1,1-2.5h1l1.2,1.4h-1.1ZM216.8,183.1l.5.4-1-.2-.3.6-.8.4.9-1.9.7.7-.8-.7-1,2-.3-.1,1-2.6h1l1.2,1.5-1.1-.1ZM215.3,177.8v-8.5l2-.9-1.1-.2-.3.7-.9.4.9-2,1.4,1,.5-.2v8.9l-2.5.8ZM217.8,177.6v.6h-.1c-.1,0-.3.1-.4.6-.1.7-.4,1.2-.8,1.2h0c-.2,0-.5-.1-.7-.9,0-.3-.1-.4-.2-.4h-.1l-.2.1v-.6l2.5-.6ZM216.8,168.1l-.8-.8-1.1,2.2-.3-.1,1.1-2.8h1.1l1.3,1.6-1.3-.1ZM219.7,182.7l-.3.7-.9.4.9-2,1.4,1.1-1.1-.2ZM220.3,182.4l-.8-.8-1.1,2.2-.3-.1,1.1-2.8h1.1l1.3,1.6-1.3-.1ZM223.2,182.1l-.3.8-.9.4.9-2.1,1.4,1.1-1.1-.2ZM223.8,181.8l-.8-.8-1.2,2.3-.3-.1,1.2-3h1.1l1.4,1.7-1.4-.1ZM226.9,181.5l-.3.8-.9.5,1-2.2,1.4,1.1-1.2-.2ZM227.6,181.2l-1-.9-1.2,2.4-.3-.1,1.2-3.2h1.2l1.4,1.7-1.3.1ZM231.5,180.7l-.4.9-1,.5,1.1-2.4,1.6,1.2-1.3-.2ZM232.3,180.4l-1.1-1-1.4,2.8-.3-.1,1.4-3.6h1.4l1.6,2-1.6-.1ZM235.7,179.9l-.4.9-1,.5,1.1-2.4,1.5,1.2-1.2-.2ZM239.7,179.4l-.4,1-1.1.5,1.2-2.7,1.7,1.3-1.4-.1ZM240.7,179.1l-1.3-1.2-1.6,3.2-.3-.1.5-1.4h-1.5l-1.1-1-1.4,2.8-.3-.1,1.4-3.6h1.3l1.6,1.9,1-2.7h1.6l1.7,2.1h.1c.7-.2,1.4-.2,2.1-.2h.1v.5h-1.4l-.9.2v-.3l-1.6-.1ZM243.3,180.3h1.4v.4h-1.4l-1,.1v-.5h1ZM243.3,181.8h1.4v.5h-1.4l-1,.1v-.5l1-.1ZM244.6,199.3h-.4c-.6,0-1.2,0-1.8-.1h-.1v-.5h.2c.7.1,1.3.1,2,.1h.1v.5h0ZM57.6,129.7h2.4v6h-2.5l.1-6ZM57.6,135.8h2.4v6h-2.5l.1-6ZM55.1,129.7h2.4v6h-2.4v-6ZM55.1,135.8h2.4v6h-2.4v-6ZM75,129.7h2.4v6h-2.4v-6ZM75,135.8h2.4v6h-2.4v-6ZM72.4,129.7h2.4v6h-2.4v-6ZM72.4,135.8h2.4v6h-2.4v-6ZM91.8,131.5c-.1.4-.1.9-.1,1.3h0l-.2.5v11.4l-.2-.1-.1-.1h-.1v-2.2l-1.6-1v-10l1.6,1.2v-.5c-.3-.3-.6-.5-1-.8-.7-.5-1.3-.9-1.3-2.1v-.1l.2.2,2.6,2.1.2.2h0ZM95.6,135.4c-.2,2.5-.2,4.9-.2,7.4v4.3h-.3c-.1-.1-.1-.5-.2-2.1l-1.4-.9v-9.5l1.4,1.1v-.5c-.3-.2-.6-.5-.9-.7-.8-.3-1.2-1.1-1.2-1.9v-.3l2.7,2.2.1.9ZM99.3,137.6c0,.2-.1.5-.1.7,0,.3,0,.7-.1,1v4.2c0,1.9.1,3.6,0,5.8h-.5v-1.9l-1.2-.8v-9l.2.2,1,.8v-.4c-.2-.2-.5-.4-.7-.5-.7-.3-1.1-1-1-1.8v-.3l2.4,1.9v.1ZM96.9,135.3c.5-2,.7-2.2.8-2.2h0c.2,0,.2.3.2.6,0,.5,0,1,.2,1.4.1-.3.1-.6.1-.9s0-.5.2-.6.3,0,.9,3.3l.1.4-2.5-2h0ZM93,132.1c.6-2.3.8-2.2,1-2.2s.2.3.2.7c0,.5,0,1.1.2,1.6.1-.3.1-.7.1-1s0-.6.2-.6.3,0,1,3.5l.1.4-.3-.3-2.4-2-.1-.1h0ZM88.7,128.7c.6-2.4.9-2.3,1-2.3s.2.3.2.7c-.1.6,0,1.2.3,1.7.1-.3.2-.7.1-1.1,0-.4,0-.6.2-.6s.4,0,1,3.7l.1.4-2.9-2.5h0ZM85.4,119.4h1.5l.9.8-.3.4-.8-.7h-1.3v-.5ZM85.4,121h1.5l.9.8-.3.4-.8-.7h-1.3v-.5ZM85.4,122.5h1.5l.9.8-.3.4-.8-.7h-1.3v-.5ZM85.4,124.1h1.5l.9.8-.3.4-.8-.7h-1.3v-.5ZM85.4,125.6h1.5l.9.8-.3.4-.8-.7h-1.3v-.5ZM85.4,127.2h1.5l1,.7-.2.4-.9-.7h-1.3l-.1-.4ZM85.4,128.7h1.5l1,.7-.2.4-.9-.7h-1.3l-.1-.4ZM85.4,130.3h1.5l.9.6-.2.4-.8-.6h-1.3v-.4h-.1ZM85.4,131.8h1.5l.9.7-.2.4-.8-.6h-1.3l-.1-.5ZM85.4,133.4h1.5l.9.7-.2.4-.8-.6h-1.3v-.5h-.1ZM85.4,134.9h1.5l.9.7-.2.4-.9-.6h-1.3v-.5ZM85.4,136.5h1.5l.9.6-.2.4-.8-.6h-1.3v-.4h-.1ZM85.4,138h1.5l1,.7-.2.4-.9-.6h-1.3l-.1-.5ZM85.4,139.6h1.5l1,.6-.2.4-.9-.6h-1.3l-.1-.4ZM85.4,141.1h1.5l1,.6-.2.4-.9-.6h-1.3l-.1-.4ZM85.4,142.7h1.5l1,.6-.2.4-.9-.6h-1.4v-.4ZM69.8,126.8c.6-.9,2.5-3.7,3.4-3.7h.1c.3.1.3.6.3.7,0,1.2.6,1.8,1.2,1.8s1.2-.6,1.2-1.7c0-.2,0-.6.4-.8.8-.2,2.8,2.7,3.4,3.6l.1.2h-10.3l.2-.1ZM52.4,126.8c.6-.9,2.5-3.7,3.4-3.7h.2c.3.1.3.6.3.7,0,1.2.6,1.8,1.2,1.8s1.2-.6,1.2-1.7c0-.2,0-.6.4-.8.8-.2,2.8,2.7,3.4,3.6l.1.2h-10.3l.1-.1ZM108.7,142.6c-.1,0-.1.1-.2.1v2.9h-1.1v-2.9h0v2.9h-1.1v-2.9h-.3v-.5h2.8v.2s0,.1-.1.2h0ZM116.8,142.6c-.1,0-.1.1-.2,0v2.9h-1.1v-2.9h0v2.9h-1.1v-2.9h-.3v-.5h2.8v.2c0,.1,0,.2-.1.3h0ZM122.8,144.9l-.1-.2c-.1.2-.3,1.1-.3,4.3v.1h-.3c-.2-.1-.2-.4-.2-2.5v-2.2h0c0-.3,0-.5.1-.8s.2-.3.3-.3c.4,0,.5.7.5,1.2v.4ZM124.7,146.4l-.2-.1c-.1.2-.3,1.1-.3,4.3v.1h-.3c-.2-.1-.2-.4-.2-2.5v-2.2h0c0-.3,0-.5.1-.8s.2-.3.3-.3c.4,0,.5.7.5,1.2l.1.3ZM221.4,142.1h2.8v.2c0,.1,0,.2-.1.3s-.1,0-.2.1v2.9h-1.1v-2.9h0v2.9h-1.1v-2.9h-.3v-.6ZM213.2,142.1h2.8v.2c0,.1,0,.2-.1.3-.1,0-.1.1-.2,0v2.9h-1.2v-2.9h0v2.9h-1.1v-2.9h-.3l.1-.5ZM207.4,144.6c0-.5.2-1.2.5-1.2.1,0,.2.1.3.3.1.3.1.5.1.8v2.2c0,2,0,2.4-.2,2.5h-.3v-.1c0-3.2-.2-4-.3-4.3l-.2.1.1-.3ZM205.5,146c0-.5.2-1.2.5-1.2.1,0,.2.1.3.3.1.3.1.5.1.8v2.2c0,2,0,2.4-.2,2.5h-.3v-.1c0-3.2-.2-4-.3-4.3l-.2.1.1-.3ZM232.1,121.6v-3.2l-.7.3,1.2-2.8,1.5,1.2.2-.4h-.4l-1.3-1.3-1.7,3.4-.3-.1,1.6-4.2h1.6l.2.3,1.5-4h1.5l.9-2-.8,1.6-.3-.1,1.7-4.2h.7l8.7-18.6,7.8-9.9-10.8,32.8-15.8,17,3-5.8ZM174.9,144.4c0-.4.2-.8.5-1.1.2-.2.5-.3.8-.2l.9.1-.9.1c-.4.1-.7.5-.7,1v.1h-.6ZM169.8,143.1h4.3l-.5.7h-3.8v-.7ZM164.9,141.1h.3c1.2.1,2.3.4,3.3,1.1l-.2.2c-2.1-1-4.5-1-6.5,0l-.2-.2c1-.7,2.1-1,3.3-1.1h0ZM156.5,143.7l-.5-.7h4.3v.7h-3.8ZM153.9,143.1c.3-.1.6,0,.8.2.3.3.5.7.5,1.1v.1h-.6v-.1c0-.5-.3-.9-.7-1l-.9-.1.9-.2ZM82,87.4l8.8,18.6h.8l1.6,4.2-.3.1-.8-1.6.9,2h1.5l1.5,4,.2-.3h1.6l1.6,4.2-.3.1-1.7-3.4-1.3,1.2h-.4l.2.4,1.5-1.2,1.2,2.8-.7-.3v3.2l2.7,5.8-15.8-17.1-10.6-32.6,7.8,9.9ZM51.2,200.6c-.2,1.3-.3,2.6-.2,3.9v.1l-7.6.9v-.2c-.2-2.6-.2-20.3-.2-23.2.1-6.1,2.1-8.3,3.7-8.3h0c2,0,4.2,3.1,4.2,8.9l.1,17.9ZM60.1,201.3v2.3h-.1l-5.9.7h-.2v-.2c-.1-2.4-.2-18.6-.1-21.2,0-3.4.8-6.2,2-7.3.3-.3.8-.5,1.2-.4,1.8.3,3.2,3.9,3.2,8.2v4.2c.1,10.5,0,13.1-.1,13.7h0ZM68.7,199.2c-.1,1.1-.2,2.2-.2,3.3v.1l-5.9.7v-2.3c-.1-.5-.1-2.8-.1-14.6v-2.9c.1-5.2,1.6-7,2.9-7h0c1.6,0,3.2,2.6,3.3,7.5v15.2ZM76.2,198.6c-.1,1-.2,2-.1,3.1v.1l-5.5.6v-2.1c-.1-.5-.1-2.7-.1-13.6v-2.5c.1-4.8,1.5-6.5,2.7-6.5h0c1.5,0,3,2.4,3,6.9v14ZM81.6,201v.1l-4.3.5v-.2c0-1,0-2-.1-3v-13.8c.1-3.7.9-6.1,2.2-6.1h0c1.2,0,2.4,2.2,2.4,6.4v4.5c-.1,3.9,0,7.3-.2,11.6h0ZM84.3,173.6v27.1l-.1.1h-.1c-.2-.1-.3-1.1-.2-20.5v-6.3l-41.1-8v-.9l4.7.9v-3.7l-4.7-1.1v-.5l4.7,1.1v.2l-4.6-1.2v-.6h.1l5.5,1.4,3,.7,3.2.8v-1.5h2.4v2.1h.1v-2.2h2.4v2.8l1,.3v-3.5h-.9v-.2c0-.8-.2-1.6-.8-2.2-.5-.5-1.1-.8-1.9-.8h0c-.7,0-1.4.3-1.8.8-.5.6-.8,1.4-.8,2.2v.2h-1.3v-.8h.6c.1-.6.3-1.2.7-1.8h-3.4l6.2-4.4.1.1,6.2,4.4h-3.6c.4.5.6,1.1.7,1.8h.1v-1.4h.6v5.8l11,2.7v-5.9h0v-.7c-.1-1.3.7-2.5,2-2.9-.4,0-.7.2-1,.4-.8.6-1.3,1.5-1.2,2.5v.2h-1.3v-.8h.6c.1-.6.3-1.2.7-1.8h-3.5l6.2-4.4.1.1,6.2,4.4h-3.6c.4.5.6,1.1.6,1.8h.1v-1.4h.8v10.2l2.7.7v2.9l2.9.6-.2.2h-.1ZM54.8,161c0-2,1.3-2.9,2.5-2.9h0c1.1,0,2.4.9,2.5,2.9h0v.1c0,.1-.1.1-1.4.1h-3.4v-.1l-.2-.1ZM87.6,199.2c-.6.1-1.2.1-1.7.1h-.5v-.5h.2c.7,0,1.3,0,2-.1h.2l-.2.5h0ZM85.5,195.7h2.2v.5h-2.3v-.5h.1ZM85.4,194.7v-.5h2.5v.5h-2.5ZM85.5,197.3h2.2v.5h-.1c-.4,0-1.2.1-1.7.1h-.5v-.5l.1-.1ZM90.8,180.4l-.4-1-1.4.2,1.7-1.3,1.2,2.7-1.1-.6ZM94.8,180.8l-.4-.9-1.3.2,1.6-1.2,1.1,2.4-1-.5ZM99,181.6l-.4-.9-1.3.2,1.6-1.2,1.1,2.4-1-.5ZM103.5,182.2l-.3-.8-1.2.2,1.4-1.1,1,2.2-.9-.5ZM107.2,182.8l-.3-.8-1.1.2,1.4-1.1.9,2.1-.9-.4ZM108.3,183.2l-1.2-2.3-.9.9h-1.3l1.4-1.7h1.1l1.1,3-.2.1ZM107.9,166.2v9.6l-2.5-.7v-10l2.5,1.1ZM105.9,164.9l1.4-1,.9,2-.9-.4-.3-.7-1.1.1ZM107.9,176.4v.6l-.2-.1h-.1s-.1.1-.2.4c-.1.9-.5,1-.7,1h0c-.4,0-.7-.5-.8-1.3-.1-.5-.2-.7-.4-.7h-.1v-.6l2.5.7ZM110.7,183.3l-.3-.7-1.1.2,1.3-1,.9,2-.8-.5ZM111.7,183.7l-1.1-2.1-.8.8h-1.3l1.3-1.6h1.1l1.1,2.8-.3.1ZM111.3,167.7v9.1l-2.5-.7v-9.4l2.5,1ZM109.3,166.7l1.3-1,.9,2-.9-.4-.3-.7-1,.1ZM109.6,176.8l1.6.4h.1v.6l-.2-.1h-.1s-.1.1-.2.4c-.1.8-.5,1-.7,1h0c-.4,0-.7-.5-.8-1.3-.1-.5-.2-.6-.4-.6h-.1v-.6l.8.2ZM114.1,183.8l-.2-.6-1.1.2,1.3-1,.9,1.9-.9-.5ZM118.5,184.7l-.9-1.9-.6.6.7-.5.8,1.8-.9-.4-.2-.6-1,.2.5-.4h-1.2l1.2-1.4h1l1,2.5-.4.1ZM115.8,179v-.6l.7.2,1.6.4h.1v.7l-.2-.1h-.1s-.1.1-.2.3c-.2.7-.5.9-.7.9h0c-.4,0-.7-.5-.8-1.1-.1-.5-.2-.5-.4-.6v-.1ZM121.4,185l-.4-.7.4.7-.8-.3-.2-.5-.9.1.4-.3h-1l1-1.3h.9l.8,2.2-.2.1ZM119.4,179.9v-.6l1.7.4v.6l-.2-.1c-.1.2-.1.3-.1.5-.1.3-.1.6-.3.7h-.2c-.3,0-.4-.4-.5-.8,0-.2-.1-.7-.2-.7h-.2ZM119.9,169.8h.9l.8,2.1-.3.1-.4-.7.3.8-.2-.1v7.4l-1.7-.5v-7.8l.1.1.3-.2h-1l1.2-1.2ZM116.8,168.2h1l1,2.5-.3.1-.9-1.9-.6.6.6-.5.8,1.8h0v7.9l-2.5-.7v-8.3l.5.2.4-.3h-1.1l1.1-1.4ZM113.4,166.4h1.1l1.1,2.8-.3.1-1.1-2.2-.8.8h-1.4l1.4-1.5ZM114.9,169.3v8.5l-2.5-.7v-8.9l.5.2,1.4-1,.9,2-.9-.4-.3-.7-1.1.2,2,.8ZM114.9,178.2v.6h-.3s-.1.1-.2.4c-.1.8-.5.9-.7.9h0c-.4,0-.7-.5-.8-1.2-.1-.5-.2-.6-.4-.6h-.1v-.6l2.5.5ZM113.3,181.5h1l1,2.6-.3.1-1-2-.8.7h-1.2l1.3-1.4ZM110.9,164.7l1.1,2.8-.3.1-1.1-2.1-.8.8h-1.3l1.3-1.6h1.1ZM106.4,163h1.1l1.1,2.8-.3.1-1.1-2.2-.8.8h-1.3l1.3-1.5ZM102.5,161h1.2l1.3,3.3-.3.1-1.3-2.5-1,.9h-1.4l1.5-1.8ZM101.2,174.1v-10.7l3.1,1.4v10.2l-3.1-.9ZM104.3,175.5v.6l-.2-.1h-.2c-.1.1-.2.3-.2.5-.2.9-.6,1.1-.8,1.1h0c-.5,0-.9-.6-1-1.5-.1-.6-.3-.7-.5-.8h-.1v-.6h.2l2.6.7.2.1ZM103.6,163.9l-.3-.8-1.2.2,1.5-1.1,1,2.2-1-.5ZM102.5,179.4h1.2l1.2,3.2-.3.2-1.2-2.4-.9.9h-1.4l1.4-1.9ZM100.3,182.1l-1.4-2.8-1.1,1h-1.5l1.6-2h1.3l1.4,3.6-.3.2ZM99.2,162.5v11l-2.7-.7v-11.4l2.7,1.1ZM97.1,160.9l1.4-1.1,1,2.1-.9-.5-.3-.8-1.2.3ZM97.3,173.6l1.8.5h.1v.7l-.2-.1h-.1s-.1.1-.2.5c-.2,1-.5,1.2-.7,1.2h0c-.4,0-.8-.6-.9-1.5-.1-.6-.2-.8-.4-.8h-.1v-.7l.7.2ZM98.8,158.8l1.2,3-.3.1-1.2-2.3-.9.9h-1.4l1.4-1.7h1.2ZM95.1,156.9l1.3,3.3-.3.1-1.3-2.6-1,1h-1.4l1.5-1.8h1.2ZM92.7,171.8v-12l2.7,1.2v11.6l-2.7-.8ZM95.5,173.2v.7l-.2-.1h-.1c-.1,0-.1.1-.2.6-.1,1-.5,1.2-.7,1.2h0c-.4,0-.8-.6-.9-1.6-.1-.7-.2-.8-.4-.8h-.1v-.7l.8.2,1.8.5h0ZM94.8,159.9l-.3-.8-1.2.2,1.5-1.2,1,2.3-1-.5ZM91,154.4l1.6,4.1-.3.1-1.6-3.2-1.3,1.2h-1.7l1.8-2.2h1.5ZM88.6,170.7v-12.7l3.1,1.3v12.2l-3.1-.8ZM91.7,172.2v.7l-.2-.1h-.2c-.1,0-.2.2-.2.6-.2,1.1-.6,1.3-.8,1.3h0c-.5,0-.9-.7-1-1.7-.1-.7-.3-.9-.5-.9h-.1v-.7l3,.8ZM90.7,158l-.4-1-1.4.2,1.7-1.3,1.2,2.7-1.1-.6ZM85.4,149.3h1.5l.9.5-.2.5-.9-.5h-1.4v-.5h.1ZM85.4,150.8h1.5l.9.5-.2.5-.9-.5h-1.4l.1-.5ZM85.4,152.4h1.5l.9.5-.2.5-.9-.5h-1.4l.1-.5ZM85.4,153.9h1.5l.9.5-.2.5-.9-.5h-1.4l.1-.5ZM85.4,155.5h1.5l.9.5-.2.5-.9-.5h-1.4v-.5h.1ZM85.4,157h1.5l.9.5-.2.5-.9-.5h-1.4l.1-.5ZM85.4,158.6h1.5l.9.4-.2.5-.9-.4h-1.4v-.5h.1ZM85.4,160.1h1.5l.9.5-.2.5-.9-.5h-1.4l.1-.5ZM85.4,161.7h1.5l.9.4-.2.5-.9-.4h-1.4v-.5h.1ZM85.4,163.2h1.5l.9.4-.1.5-.9-.4h-1.4v-.5ZM85.4,164.8h1.5l.9.3-.1.5-.9-.3h-1.4v-.5ZM85.4,166.3h1.5l.9.4-.1.5-.9-.4h-1.4v-.5ZM85.4,167.9h1.5l.9.3-.1.5-.9-.3h-1.4v-.5ZM85.4,169.4h1.5l.9.3-.1.5-.9-.3h-1.4v-.5ZM85.4,171h1.4l1,.3-.1.5-1-.3h-1.4l.1-.5ZM85.4,172.5h1.5l.9.3-.1.5-.9-.3h-1.4v-.5ZM85.4,174.1h1.4l1,.2-.1.5h-.2c-.6-.2-1.2-.2-1.9-.2h-.3v-.5h.1ZM85.4,175.6h1.4l1,.3-.1.5h-.2c-.5-.2-1.1-.3-1.6-.2h-.5v-.6ZM85.4,177.2h1.4l1,.2-.1.5h-.2c-.6-.2-1.2-.2-1.8-.2h-.4l.1-.5ZM85.4,178.7h.1c.7,0,1.4,0,2.1.1h.1v.1l1.7-2.1h1.6l1,2.7,1.6-1.9h1.3l1.4,3.6-.3.1-1.4-2.7-1.1,1h-1.5l.5,1.4-.3.1-1.6-3.2-1.3,1.2h-1.6v.3l-1-.2h-1.4l.1-.5ZM85.4,180.3h.1c.7,0,1.4,0,2.1.1h.1v.5l-1-.1h-1.4l.1-.5ZM85.4,181.8h.1c.7,0,1.4,0,2.1.1h.1v.5l-1-.1h-1.4l.1-.5ZM85.4,183.4h.1c.7,0,1.4,0,2.1.1h.1v.5l-1-.1h-1.4v-.5h.1ZM85.4,184.9h1.4l1,.1v.5l-1-.1h-1.4v-.5ZM85.4,186.5h1.4l1,.1v.5l-1-.1h-1.4v-.5ZM85.4,188h1.4l1,.1v.5l-1-.1h-1.4v-.5ZM85.4,189.6h2.4v.5h-2.4v-.5ZM85.4,191.1h2.4v.5h-2.4v-.5ZM85.4,192.6h2.4v.5h-2.3l-.1-.5ZM269.9,98.7l-2.2,1.6h4.6l-2.4-1.6ZM178.3,245c.1-3.4-2.6-6.3-6-6.4h-.4c-1.1,0-2.3.2-3.3.7l.2-4.8h8.6v-3.2h-11.6l-.4,9.5,2.4,1.8c.9-.6,1.9-.9,3-.9,2.4,0,3.8,1.4,3.8,3.3,0,1.8-1.5,3.3-3.3,3.3h-.3c-2.1,0-4.1-.6-5.9-1.7v3.5c1.9.9,3.9,1.4,6,1.4,4.5,0,7.2-3,7.2-6.5ZM141.6,251.1v-19.8h-3.1l-5,2.6v3.4l4.7-2.4v16.2h3.4ZM146.6,245.5c0,3.5,2.6,6,7.2,6s7.1-2.5,7.1-5.7c0-2.2-1.2-3.8-3.5-4.9,1.6-.9,2.7-2.6,2.8-4.5,0-3.2-2.4-5.6-6.5-5.6s-6.4,2.2-6.4,5.4c0,1.8.9,3.4,2.4,4.3-1.9.9-3.1,2.9-3.1,5ZM153.6,233.7c2.2,0,3.3,1.3,3.3,2.8,0,1.3-1,2.4-2.5,3.1l-1.9-.8c-1.2-.4-2-1.4-2.1-2.6.1-1.3,1.2-2.5,3.2-2.5ZM152.6,241.9l2.2.9c1.9.8,2.6,1.8,2.6,2.9,0,1.5-1.3,2.8-3.6,2.8s-3.8-1.2-3.8-3.2c0-1.6,1-2.7,2.6-3.4ZM187.6,248.3c-1.7,0-3.3-.5-4.8-1.2v3.4c1.5.6,3.2,1,4.8,1,5.3,0,8.3-2.8,8.3-11,0-6.1-2.7-9.6-7.4-9.6-3.8,0-6.9,2.6-6.9,6.5s2.6,6.5,6.3,6.5c1.7.1,3.3-.5,4.6-1.6-.1,4.2-1.7,6-4.9,6h0ZM188.5,240.9c-1.9-.1-3.4-1.8-3.3-3.7.1-1.8,1.5-3.2,3.3-3.3,2.5,0,3.8,1.9,3.8,5.4-1,1-2.4,1.6-3.8,1.6h0ZM59.6,253.7c.3-.3.4-.7.4-1.2.8-11.3-4.5-21.5-12.4-25.6-.9,7.2.7,20.6,10.8,26.8.3.2.8.2,1.1,0h-.1c-.7-6.1-3.4-11.7-6.8-16.8-1.1-1.7-2.1-3.4-2.9-5.3,1.9,3.6,4.3,6.5,6.3,10,2,3.9,3.3,7.9,3.6,12.1ZM293.4,217.3c-.2.2-.5.4-.7.4s0-1.1-.1-2.3c-.1-2.2-.8-5-2.4-4.7-1.6.5-2.1,3-2.6,4.4-.2.7-.5,2.4-1.1,1.4s-1.5-.1-1.7,1c-.5,1.4-.2,4.3-.5,5.4-.1.2-.3,0-.6-.1-.4-.2-.8-.2-1.1.1-1,.8-.7,2.8-.6,3.2s.8,1.1.7,1.4c-.2.3-1.2-.6-1.6-.1-.6.6-.5,1.9-.3,2.6s1.1,1.5,1,1.8-.3.2-.6.4-.4,1.4-.6,1.9c-.2.4-.5.8-.8,1.2-.2.2-.5,2,.4,1.7.8-.9,1.5-1.8,2.1-2.9,2.5-3.9,4.9-8.1,5.8-12.7-.7,4.7-4.2,11.3-7.3,15.9,1.5-.2,5.3-3.5,6.1-4.8.1-.9-.8,0-.7-.6,1.2-.8,3.7-1.3,4.9-2.6.8-.6,1.9-2.9.5-3.1-.4,0-.9,0-1.1-.2,0-.5,3.9-4.6,4-6.4.4-.7,0-3.1-1.1-2.3h0ZM291.4,74.4c0,.2-.7,0-1.6,0-4.1.1-5.1,3.4-1.3,5.3.6.3,1.4.7.8,1.2-.5.4-.6,1.1-.3,1.5.1.2.3.3.5.4,1.2.6,3.2.2,3.4.6s-.4.7-.4,1c-.2,1.1,1.2,1.4,1.9,1.1.3-.1.9-.9,1.1-.8.1.3-.7,1.5-.4,1.9.2.7,1.1.5,1.6.3s1.2-1.2,1.4-1.2,0,.4.1.7.8.5,1.1.6.5.7.6.8c.6.4,1.4,0,1.1-.7-.8-1.3-1.8-2.7-2.8-3.9-1.5-1.8-3.4-3.1-5.6-4.1.1,0,.2.1.3.1,3.2,1.2,5.8,3.8,7.8,6.5.2.4.5.7.7,1,.1-.7,0-1.4-.2-2.1-.4-1.4-.5-3.1-1.4-4.2-.5-.1-.2.8-.5.7-.3-1.2,0-3.6-.6-5-.2-.5-.6-1-1.1-1.2-1-.2-.8,1.4-1.2,1.8-.1.1-.3-.3-.6-.8-.8-1.5-2.6-4.9-4.5-3-.3.4.3.9.1,1.5h0ZM314.3,159.1c-.5-1.3-1.5.5-2,.4-.3,0,.4-2.2.6-4.4.1-1.5.4-4.2-1.6-4.5-.6,0-.6,1-1,1.4-.1.1-.5-.8-1.1-1.6-1.1-1.5-2.8-3.1-4-1.7s-.3,5-.1,6.2c.2,1.5-.7.4-1.4,1.2-.9,1,.3,3.5.9,4.5s1.4,1.7.2,2c-.4.2-.8.5-.9,1-.2,1,.2,2,1,2.6.3.2,1.2.1,1.3.4s-.3.3-.6.5c-1.5.6-.7,2.1.2,2.7.5.3,1.6.1,1.7.4s-.2.4-.3.8.3,1.3.4,1.7c0,.5,0,.9-.1,1.4,0,.4.6,1.6,1.1.8.6-3.9.7-7.9.3-11.8-.1-1.7-.4-3.3-.9-5,1.4,4.1,1.5,8.7,1.5,13.1,0,1.2-.1,2.3-.2,3.5,1-1.3,2.6-5.9,2.7-7.8-.3-.7-.6.6-.8.1,0-.3.8-1.4,1.1-1.9,1.3-1.9,2.7-4.1,2-6h0ZM309.8,96.1c-.2.5-.4-1.1-.7-.1.1,1.9.1,6.4.7,7.8,1.1-4.4,1.9-8.9,2.4-13.4,0,2.3-.3,4.5-.7,6.7-.4,2.2-.9,4.7-1.3,6.8,0,.3-.1.7.4.7.9-.4.7-1.2,1.1-2.1.2-.4.8-1.1.8-1.5-.5-1.6.4-.5,1.5-.7.7-.2,1.2-.9,1.3-1.6,0-.8-1.1-1.5-1-1.8s.9.1,1.2,0c1.1-.6,1.6-1.9,1.2-3.1-.1-.8-.9-1.2-1.1-1.9s.3-1.1.8-2.2c.5-.8.3-2.4,1.3-2.8v-.6c0-.6-.5-1.3-1-1.2-.3.1-.6-.3-.5-1.3,0-2.5.6-6.1-1-8.5-1.4-1.6-2.6.8-3.3,2.8-.4,1.1-.6,2.2-.8,2.1-.4-.4-.5-1.5-1-1.4-.7.2-1,1-1.1,1.9-.4,1.7,1,7.8.8,8.1-.2,0-.6-.4-.9-.7s-.7-.4-.9.3c-.3,1.3-.2,2.7.3,3.9.7,1.2,1.2,2.4,1.5,3.8h0ZM317.6,113.2c0,.7.4,2.8.2,3-.5,0-1.2-1.9-1.8-.6-1,2.5,1.1,5.9,1.5,8.2-.3.4-.3-.9-.7-.3-.2,1.1.1,4.2.1,5.8,0,1.4.1,2.3.3,2.4,1.5-5.1,2.5-10.6,4.1-15.7-1.4,5.2-2.3,10.8-3.6,16,0,.3-.1.7.5.8,1-.2.8-1.2,1.2-2,.2-.3.9-1,.9-1.4-.4-1.8.5-.5,1.5-.4.8-.1,1.4-.7,1.4-1.5,0-.9-1.1-1.8-1-2s.9.3,1.2.2c1-.4,1.7-1.4,1.5-2.5,0-.6-.2-1.1-.6-1.5-1-.7-.2-1.1.5-2.2,1.3-1.4,2.4-5.6.5-6-.4,0-.6-.3-.5-1.2.3-1.5.9-6.7-.4-8.3-1.3-1.9-2.7.3-3.6,2.1-.5,1-.8,2.1-.9,1.9-.4-.3-.4-1.6-1-1.6-2.4.7-1.4,4.8-1.3,6.8h0ZM321.6,115.2c.1-.4,0-.1-.1.2q0-.1.1-.2h0ZM314.5,133.2c-.5-.4-.4.8-.7.6.1-1.5,1-4.1.8-5.8,0-.7-.2-1.3-.7-1.8-.9-.7-1.2,1.2-1.6,1.4-.6-1.5-.6-4.9-1.8-6.3-.4-.6-1.2-.7-1.8-.4-.6.3-.2,1.1-.5,1.6-.1.2-.7-.4-1.4-.7-3.3-1.6-5.4.6-3.5,3.9.4.7.8,1.4,1.3,2.1.3.5.2.9-.2,1s-1.3,1-.3,2.4c.6,1.1,2.5,1.6,3.1,2.3,0,.6-.9.9-.8,2,0,1.3,1.4,1.5,1.7,1.5s1.1-.6,1.2-.4-.9,1.1-.8,1.7.9,1,1.5.9c.9-.1,2-1.5,1.6.1,0,.4.7.8.9,1.1.2.4.3.7.4,1.1.3.5,1.1.8,1.2,0-.3-1.8-.9-3.6-1.6-5.3-.9-2.7-2.3-5.2-4-7.5l-.2-.3s.2.1.2.2c3,3.4,4.8,8,6.2,12.2.4-1.5.2-6.1-.2-7.6h0ZM307.1,181.9c-.6-.3-.8.7-1.3.9-.2.1-.2-1-.6-2-.6-1.9-1.9-4.2-3.4-3.4s-1.4,3.3-1.6,4.8c-.1.8,0,2.4-.8,1.8s-1.5.2-1.6,1.6c-.1,2.1.9,4.5.7,5s-.9-.4-1.7.7c-.7.9-.2,2.4.2,3.1.2.4,1,.7,1.1,1s-1.3-.1-1.6.6c-.3.8-.1,1.7.4,2.4.6.9,2.3.9,1,1.8-.2.3-.1,1.4-.1,1.9-.1.5-.3.9-.5,1.4-.1.4,0,.9.2,1.3.4.4.7,0,.8-.2,2-5.2,4-11.1,4-16.8.1,1,.1,2,0,3-.5,4.8-1.7,9.5-3.4,14.1,1-.3,2-2.1,2.8-3.1.4-.6,3-4.1,1.6-3.6-.2.1-.4.2-.4,0,1-1.2,3.3-2.5,4.1-4.1.4-.7.7-1.5.6-2.3-.1-1.5-1.5-.2-2-.5-.2-.3.9-1.9,1.1-2.6.9-2.2,2.6-5.4.4-6.8h0ZM306,96.9c-.2.5-.3,1-.5,1.2-.9-1-1.5-4.3-3.1-5.3-.6-.4-1.4-.3-1.9.3-.5.5,0,1.1-.1,1.8-.1.2-.7-.1-1.6-.2-1.6-.1-3.7.3-4,2.3-.2,1.8,1.5,3.2,2.9,3.9.3.2.4.4.2.6-.7.5-1.1,1.8,1.2,2.5-1.5.2-1.8,1.7-1.1,2.1.2.1.5.2.7.1.8,0,2.5-.5,3-.2,0,.2-.5.6-.5.9-.2.8.2,1.6,1,1.9.3.1.7,0,1-.1.4-.1,1-.9,1.2-.9s-.7,1.4-.5,2.1,1.1.7,1.7.5,1.3-1.3,1.5-1.2,0,.4.1.8.9.6,1.1.8.5.9.6,1c.2.2.6.3.9.2.2-.1.4-.4.4-.6-1-2.4-2.4-4.7-4-6.7-.7-.9-4-5.1-4.1-5.2s2.4,2.8,2.7,3.1c.9,1,1.9,2.2,2.7,3.2,1,1.4,2.3,3.2,3.1,4.7.1-.8.1-1.7-.2-2.5-.3-1.6-.6-3.1-1.1-4.6-.2-.4-.2-.6-.5-.5s-.1.9-.4.7c-.2-1,.2-2.2-.2-3.7-.1-.9-.2-1.9-.5-2.8-.2-.7-1.4-1.5-1.7-.2h0ZM298.7,63.8c-.4.3-1.6-1-1.6.5-.1,2.5,2.6,4.5,3.6,6.4-.1.5-.5-.6-.7.1.4,1.4,1.8,6.1,2.5,7.1.1-5.3-.9-12.4-1-16.9.2,4.6,1.2,9.2,1.3,13.8,0,1.1.1,2.2.3,3.3,0,0,.2.4.5.2.7-.6.3-1.4.5-2.3.1-.4.5-1.3.3-1.6s-.3-.4-.3-.7,1-.1,1.4-.4c.7-.5,1.3-2.2.1-2.7s0-.5.5-.9c.3-.3.5-.6.6-.9.5-1.3,0-2.7-1.2-3.4-.3-.1-.5-.1-.6-.4-.1-.6.9-2.7.6-5.2-.2-1.4-.7-2.6-1.7-2.3-.3.2-.6.1-.8-.8-.2-1.2-.5-2.3-.8-3.4-1.2-4.2-3.8-5.5-4.3.3-.1,1.1,0,2.2-.2,2.1-.5-.1-.8-1.2-1.2-.8-1.5,1.2.1,4.6,1,6.5.4.5,1.3,2.1,1.2,2.4h0ZM250,266c1.4-1.2,2.2-2.9,1.4-4.8-.3-.7-.7,0-1.2-.3,0-.9.5-4.4.1-5.8-1-5-3-.9-4,1.4-.3.6-.5.4-.6-.1-1.5-3.6-2.5,4.6-2.9,5-.2.2-.4-.7-.9-.9-1.1.2-2.2.4-3.3.8-1.4.5-1.7,2.5-1.3,3.5.3.7,2.1,1.8.1,1.4-2.1-.4-2.4,1.8-1.7,3,.2.5,1.5,1.1,1.5,1.6s-.4.3-.7.5-.4,1.6-.4,2c-.2.9-.8,1.2-.7,2,.1,1.4,1,1.1,1.4,0,1.1-2.2,2.5-4.3,4.1-6.2l1.1-.2c1.9-2,3.4-4.4,4.4-7-.1.2-.1.5-.2.8-1,2.5-2.4,4.8-4.2,6.8l-1,.2c-1.6,2.1-2.9,4.3-4,6.7,1.1-.3,2.1-1.5,3.2-2.2.6-.4,1.1-.9,1.8-1,1-.4,2-.9,1.2-1.4-.2-.1-.3-.1-.2-.4.5-.2,1.8.3,2.5.3,1.3.1,2.7-.3,3.2-1.7.2-.5.1-1.1-.4-1.4-.3-.3-.7-.5-.8-.8-.2-.2,1.3-.7,2.5-1.8ZM11.8,125.8c-.9-1.9-1.6-4-2-6.1-1.5-6.8.1-13.8,0-20.7.4,8.9-1.6,18.3,2.3,26.7l-.1.1c.5-.2.8-.5,1-1,5.2-11.8,2.7-24.3-3.6-31.6-3.9,7.6-6.4,21.4,1.5,32,.1.4.5.6.9.6ZM12.2,146.8c.3.2.7.2,1,0,3.8-2.3,6.8-5.7,8.5-9.8,3.2-7.7,1.6-17.3,1.6-17.3-8.7,3.9-13.2,14.2-11.9,25.7,0,.5.2,1,.6,1.4,2.2-2.9,4.6-6.3,5.7-10.2,1.3-3.9,2-8.3,3.6-12-1.3,4-1.8,8.3-3.2,12.3-1.1,3.7-3.1,7.2-5.9,9.9h0ZM55.4,37.6c8.1-1.9,13.1-9.3,19.4-14.1-4.7,4.1-8.5,9.7-14.1,12.6-.9,1-7.1,1.9-4.3,2.4,12.3.7,20.3-11.9,22.6-18.1-5-.6-10,.8-14,3.8-4.7,3.5-7.9,9.1-9.4,12.1-.3.3-.2,1.9-.2,1.3ZM10.4,172.6c.3.3.8.3,1.2.1-1.4-1.6-2.5-3.4-3.4-5.3-3-6.4-2.6-14.1-4-20.9,2.3,8.6,1.8,18.8,7.7,26l-.1.1c.5-.4.8-.9.9-1.5,2.9-12.8-.8-24.9-10.2-30.4-2.2,7.8-3.6,23.7,7.9,31.9h0ZM88.1,273.4c-1-11.1-7.2-20-16.4-21.6.2,6.6,3.3,20.4,15,23.5.4.1.9,0,1.1-.4h-.1c-1.9-8-8.2-12.9-13.1-19,5.4,5.7,11.7,10.7,13.3,18.8.2-.3.3-.8.2-1.3ZM65.1,260.2c-7.6-3.9-16.3-1.8-16.3-1.8,0,0,3.6,8.5,11.2,12.4,5.3,2.8,11.2,2.5,14.2,2.1,3.5-.9-3.9-.9-4.9-1.8-6.2-1.9-10.5-6.9-15.8-10.3,3.8,1.8,6.8,4.9,10.4,7,3.4,2.4,7.8,3.4,11.5,4.2.2-.5.2-1-.1-1.5-1.5-2.5-4.8-7.5-10.2-10.3h0ZM39.2,230.4c-6.3-5.5-14.5-4.3-14.5-4.3,0,0,2,10,8.3,15.5,3.6,2.9,8.1,4.5,12.7,4.4.4,0,.8-.2,1.1-.6-8.5-1.5-12.7-10-18-15.9,5.8,5.4,9.9,13.5,18.2,15.5v.2c.3-.5.3-1.1.1-1.7-1.1-3.3-3.5-9.3-7.9-13.1h0ZM25.9,213.5c-8.8-3.4-11.5-13.6-16-21,5.1,7,7.8,16.8,16.2,20.7v.2c.4-.6.5-1.2.4-1.9-.5-3.9-1.9-11.2-5.8-16.3-3.5-4.3-8.7-7-14.3-7.2,0,0,.4,11.7,6.1,19,3.1,3.8,7.4,6.3,12.3,7.1.5-.1.9-.3,1.1-.6ZM17.6,106.2c6.4-4.4,8.4-12.5,12.3-18.9-3.4,6.6-5.4,15-12.1,19.1.3.3.7.3,1,.2,3.9-1.5,7.2-4.2,9.5-7.6,4.2-6.6,4.4-15.8,4.4-15.8-4.5,1.3-8.4,4.2-11,8.1-3,4.6-3.9,10.5-4.2,13.6-.1.5.1,1,.4,1.4l-.3-.1ZM22.4,87.2c-3-8.2,1.2-16.7,2.8-24.7-1.1,8.1-5,16.4-2.5,24.6l-.1.1c.5-.1,1-.5,1.3-.9,6.9-9.8,8-21.4,2-29.2,0,0-6.3,7.9-7.2,16.5-.4,4.5.6,9.1,2.9,13,0,.3.4.6.8.6h0ZM36.5,225.9c.4-.2.7-.6.8-1,1.7-4.9,2.3-10.1,1.7-15.3-.9-5.4-3.3-10.4-7.1-14.4-3.2,7.4-4.9,20.9,3.4,30.3.2.4.7.6,1.1.4h-.1c.6-4.3.5-8.6-.5-12.9-.8-4.2-2.5-8.1-3.1-12.4.9,4.2,2.6,7.9,3.5,12.2,1,4.3,1.1,8.7.3,13.1h0ZM38.8,53c.3-8.2,6.1-14.7,10-21.4-2.5,5.4-6.7,10.1-8.5,15.9-.8,1.8-.9,4-1.5,5.5.5.1,1,0,1.3-.3,9.1-6.8,12.6-17.5,10.8-25.8,0,0-7.2,4.7-10.6,12.2-1.8,4.1-2.5,8.6-2.1,13,0,.4.2.7.6.9h0ZM19.6,189.9c.4,0,.8-.2,1-.6,2.7-4.3,4.1-9.3,4.3-14.3.2-9.3-4.7-17.5-4.7-17.5-3.3,4.7-5.2,10.2-5.5,16,0,5.4,1.3,10.7,3.7,15.5.2.5.6.8,1.1.9.2-1.9,1.2-4.2,1.3-6.4,1-6.7-.9-13.6-.7-20.3.6,8.8,3.2,18.2-.5,26.7ZM272.5,242.9c-.5-.6-.9.3-1.4.2-.1-.8-.1-1.6,0-2.5-.6-8.4-3.7-6.2-5.3-.2-.3.8-.6.7-.8.2-1.6-2.5-1.8,3-1.8,3.9-.1,1.3.1,3-.8,1.9-.9-.9-1.7.5-1.7,1.5-.1.5-.1,1.1,0,1.6s.7,1.4.6,1.7-1.1-1-1.5-.5c-.6.5-.5,1.9-.4,2.7s.9,1.9.9,2.3c-.1.3-.3.1-.6.3-.3.2-.5,1.5-.7,1.9-.6,1-1.2,1.2-1.1,2.6.1.5.5.5.5.5,4.1-4.1,6.9-9.3,8.2-14.9,0,.2-.1.6-.1.9-1,5.4-4.1,10.3-7.4,14.6-.1.2.4.1.7,0,1.6-.5,5.4-3.1,5.4-3.7.1-.9-.8-.2-.6-.8.1-.3,1.4-.3,2.8-.7,1.6-.3,2.8-1.5,3.2-3.1.1-.8-.2-1.1-.6-1.2s-.9-.1-1.1-.4c.3-.9,2-2.1,2.7-3.3,1-1.6,2.1-3.7.9-5.5h0ZM107.5,289.2c.1-.5-.1-1-.5-1.3-3.6-3.7-8-6.4-12.9-7.8-8.6-2.3-16.8,1.1-16.8,1.1,0,0,5.8,7.1,14.4,9.4,4.9,1.2,10,1,14.8-.4,3.2-1.4-4.3-.2-5.4-.8-6.6-.7-12.2-4.5-18.4-6.8,4.2,1.1,8.1,3.3,12.2,4.7,4,1.6,8.6,1.8,12.6,1.9ZM293.6,240.6c-1-.2-2-.2-3,0-1.1.2-1.9.6-2,.4-.1-.7.6-1.6,0-2.2-2.6-2.2-4.7,3.2-5.8,4.8-.4.7-.8,1.2-.9,1.1-.5-.5,0-2.7-1.3-2.4-2.6,1-2.4,5.5-3.6,7.4-.5,0,.3-1-.4-1.1-.1,0-.3.1-.5.4-1.3,1.6-3.5,3.4-4.3,5.3,3.3-1,6.6-2.3,9.7-3.9,1.5-.8,3-1.5,4.6-2.1-4.3,2-8.5,4.7-13,6.3-.5.2-1,.3-1.3.6-.1.3-.1.6,0,.8.2.3.6.5,1,.6.2,0,.8-.4,1.2-.3.4,0,1.3.5,1.6.2.9-1.8.8.7,1.5,1.6,1,1.4,2.5,1.4,2.5-.7,0-2.3.5-.1,1,.6,1.6,1.7,3.5.4,3.4-1.7,0-.5-.1-.8.1-1.1s.9,0,1.8.1c1.3.2,2.7-.1,3.7-.9.7-.7,1.1-1.7.9-2.7-.3-.8-1-1.2,0-2,.9-.7,1.8-1.4,2.5-2.2,2.2-1.8,3.5-6,.6-6.9ZM309.4,211.1c-1,.3-1.7.9-1.8.7-.3-.7.2-1.8-.5-2.4-.6-.6-1.5-.6-2.1,0l-.1.1c-1.3,1-2.7,7.2-3.2,7-.6-.9-.8-3.8-2.5-1.8-1.4,2-.7,5.6-1.3,7.6-.5,0,.1-1.1-.6-1.1-.4.1-1.3,2.3-1.8,3.1-.5,1-1.7,3-1.6,3.7,3.3-2,6.5-4.2,9.6-6.6.9-.7,1.9-1.3,2.9-1.8-1.8,1.2-3.6,2.6-5.2,4-2.1,1.8-4.6,3.6-6.9,5.1-.2.3-.4.4.1,1.1,1.1,1,1.3,0,2.1-.2.4,0,1.4.2,1.6-.1s.1-.8.4-.8.9,1.6,1.5,2.2,1.6,1.2,2.1.4c.5-.5-.3-2.4,0-2.7.3,0,.8,1.2,1.2,1.5s2,1.3,2.7-.3c.7-1.3-.3-2.3-.1-3.1,1-.5,3.2.2,4.6-1.1,1.2-.9,1.4-2.5.5-3.7h0c-.6-.5-.3-1.4.4-2,.6-.7,1.2-1.5,1.7-2.4,2.6-3.4,1.4-8.3-3.7-6.4h0ZM324.1,142.6c-.7.8-1.2,1.7-1.4,1.5-.4-.6-.2-1.9-.8-2-.8-.3-1.4.2-1.7,1.1-.9,1.4-.9,8.1-1.2,8.2-.5-.2-1-2.5-1.8-1.5-.5.6-.7,1.4-.7,2.2-.2,2,.7,4.8.7,6.7-.4.3-.2-1.1-.7-.7-.4,1.6-.7,3.2-.8,4.8-.2,1-.5,3.3-.2,3.4,2.8-4.5,5-9.7,8.1-14.1-1.7,2.8-3.2,5.7-4.6,8.7-1,1.9-2.1,4-3,5.9,0,.4-.2.6.3,1,1.1.3,1.1-.7,1.7-1.3.3-.2,1.1-.5,1.2-1-.1-2,.8,0,1.8.4.6.2,1.5.3,1.8-.7.3-.6-.7-2.1-.6-2.5.2-.1.9.8,1.3.8,1.8.5,2.7-1.9,1.7-3.5-.2-.4-.5-.6-.4-.9.7-1,2.8-1.6,3.4-3.2.8-1.4.6-3-.4-3.6-.9-.4-.2-1.7.2-2.8,1.5-3.4,1.5-12.3-3.9-6.9h0ZM322.2,179.6c-.9.4-1.7,1.1-1.7.9-.2-.8.3-1.9-.3-2.3-.6-.5-1.4-.4-1.9.2,0,0-.1.1-.1.2-1.5,1.6-2.1,5.8-3.2,7.4-.5-.4-.4-2.8-1.5-2.2-2.3,1.7-1.5,6.3-2.2,8.5-.4.1.1-1.1-.5-1-1,1.3-1.7,3.4-2.5,4.9-.4.7-.7,1.5-.8,2.3,4-3,7.5-6.9,11.6-9.8-3.2,2.5-7.5,7.4-11.3,10.5.1.1-.4.5.1,1.1,1,.8,1.2-.2,2-.5.4-.1,1.3,0,1.5-.4s.1-.8.3-.8.8,1.5,1.3,2,1.5,1,2,.1-.2-2.6,0-2.6.7,1.1,1.1,1.4c.3.2.7.4,1.1.4.7,0,1.2-.4,1.4-1.1.6-1.7-.3-2.5,0-3s2.6,0,4.3-1.5c1.1-.9,1.3-2.5.5-3.7-.4-.3-.4-.9.1-1.6.7-.9,1.4-1.9,2-2.9,2.1-3.5,1.9-9.1-3.3-6.5h0ZM245.5,284.2c-1-.6-2.1-.9-3.2-1.1-1.2-.2-2.3-.1-2.3-.4.1-.7,1.2-1.2.9-1.9-.5-.8-1.4-1.2-2.3-.9-1.7,0-6.7,3.8-7.1,3.4-.2-.7,1-2.3-.4-2.5-2.6-.5-4.7,3.5-6.5,4.6-.2-.1-.1-.3.1-.5s.2-.4-.1-.6c-.7.1-1.4.3-2,.6l.4-.3c-1.1.9-3,1.8-3.3,3.3,4.2-1.7,8.5-.8,13-.9.7,0,1.2.1,1.8.2-2.5-.1-4.9-.1-7.4.1-2-.1-4,.1-5.9.8-.5.2-1,.3-1.2.7-.3.7,1.1,1,1.4.9.2,0,.7-.3,1-.3s1.4.3,1.6.2.1-.4.4-.4.4.3.6.7c.6.9,2.1,1.9,2.9,1.8.4-.1-.3-1.3-.1-1.3.8,1,1.8,1.8,3,2.3,1.3,1,2.9,1.6,4.5,1.6,1.4.1,2.9-1.1,2.5-2.3-.2-.5,0-.9,1-1.1,2.5-.4,6.3-1.3,7.6-3.9.5-1,.1-2.2-.9-2.8q0,.1,0,0ZM149.6,300.2c0-.6-.3-1.1-.8-1.4-2.9-2-8.7-5.3-15.4-5.6-9.6-.4-17.5,5.4-17.5,5.4,0,0,7.7,6.6,17.4,7,6.8.3,12.6-2.5,15.6-4.2.4-.2.7-.6.8-1.1-2.2.8-4.4,1.3-6.7,1.6-7.2.9-14-2.1-21-3,2.4.1,4.7.4,7,1,6.6,1.9,13.8,2,20.6.3h0ZM123.6,290.2c-2.2-3-4.9-6.6-8.2-8.7-3.1-2.3-6.5-3.7-9.4-6.3,4.8,3.3,10.2,5.1,14.1,9.7,1,.6,4.5,7.4,3.5,3.8-3.9-10.5-12.1-17.5-21.4-16.7,0,0,2.8,9.2,8.9,14.4,3.3,2.7,7.3,4.3,11.6,4.4.3,0,.7-.2.9-.6h0ZM153,286c-5.8-3.5-12.4-1.8-12.4-1.8,0,0,2.8,7.3,8.6,10.7,3.3,1.8,7.1,2.6,10.9,2.1.4,0,.7-.3.9-.7l-.1.1c-4-5.7-10.8-7-16.6-10.1,6,2.5,13,3.9,16.8,9.8.1-.4.1-.8-.1-1.1-1.4-2.3-4-6.6-8-9h0ZM219,284.3c0-.3,1.9-.6,3.6-1.4s3.3-2.3,2.8-4.4c-.1-.4-.3-.5-.5-.5-1.5.1-.4-.7.1-2.4,1.7-5.5.4-9.2-4.2-3.2-.5.5-.7.3-.7-.3-.1-1-.7-1.7-1.8-.4-1,1-2.1,3.9-2.8,4.7-.3.1-.3-.8-.8-1.1-1.3-.1-2.7-.1-4,0-1.5.3-2.5,1.7-2.4,3.2.1.3.3.6.5.9.7,1,.3,1-.8.5-.5-.3-1.2-.3-1.8-.1-.9.6-1.3,1.7-.9,2.7.1.6,1.5,1.5,1.4,2-.1.3-.5.2-1,.4-.5.2-.8,1.5-1,1.9s-1,1-1.1,1.3c-.3.4-.4,1.6.3,1.7.3.1.4-.1.6-.2,1.9-2,4-3.8,6.2-5.4.6-.5,1-.4,1.9-.3,2.6-1.5,4.9-3.5,6.8-5.9-1.9,2.6-4.2,4.8-6.9,6.5l-1.2-.1c-2.3,1.7-4.4,3.6-6.2,5.7-.1.1.2,0,.3,0,1.7-.4,3.8-1.5,5.6-1.9.8.1,1.6-.1,2.4-.4.5-.7-.6-.5-.3-1.1.2-.2,1.3.4,1.8.6,1.6.6,4,1.1,5.1-.6.6-1.2-.8-1.6-1-2.4h0ZM208.6,297.7c-1.1-.7-2.3-1.2-3.6-1.5-1.4-.4-2.6-.4-2.6-.6.2-.4.5-.7.8-1,1.2-1.3-1.1-2.6-2.3-2.3-1.9-.1-7.9,3.5-8.4,3.1-.2-.8,1.3-2.4-.3-2.8-2.9-.8-5.6,3.3-7.7,4.4-.3-.2-.1-.3.1-.5.7-1.1-1.1-.6-2.4-.2,1.1-.7-.4.2-.9.4-.9.6-2.6,1.5-2.6,2.6,5-1.4,9.7,0,14.9.3.8.1,1.4.2,2.1.4-2.8-.4-5.6-.6-8.5-.6-2.7-.4-5.5-.2-8.1.7.1,0-.6.3.1.9,1.2.8,1.5.2,2.6.2.4,0,1.6.5,1.8.3s.1-.5.4-.4c.4.3,1.1,1.6,1.6,1.9.7.6,2.9,2.1,2.3.3-.1-.4-.2-.7-.1-.6.8,1.2,1.9,2.2,3.2,2.9,1.3,1.2,5.7,3.6,7.8,1.3,1.1-1.2-.7-2.2,1.5-2.5,2.8-.2,7.3-.8,8.9-3.6.8-1.1.5-2.4-.6-3.1q.1,0,0,0ZM175.6,294.4c1.5.4,4.2,2.9,6,.9.8-1-.5-1.5-.6-2.3,0-.3,1.6-.3,3.1-.8.8-.2,1.4-.6,2-1.2.5-.4,1.2-2.5.2-2.8-1.2-.1-.3-.6.2-2,1.7-4.4,1-8-3.5-3.3-.5.4-.6.2-.6-.3-.2-2.8-2.6.6-3.2,1.7-.5.8-.8,1.4-1,1.5-.2,0-.2-.7-.6-1.1l-2.4-.5c-1.3-.5-2.7.2-3.1,1.4-.1.3-.2.6-.1.9,0,.4.8,1.2.6,1.6-.4.1-1.8-1.1-2.5-.7-.8.4-1.2,1.4-.9,2.2,0,.5,1.2,1.5,1.1,1.9-.2.3-.4.1-.9.2s-.8,1.2-1,1.5c-.6.8-1.5,1-1.2,2.2.6,1,1.3-.2,1.9-.6,1.6-1.3,3.3-2.4,5.1-3.3l1.1.2c2.1-.9,4-2.2,5.7-3.7-1.1,1.2-2.5,2.3-3.9,3.2-.6.4-1.2.7-1.9,1l-1-.2c-2.1,1.1-4,2.5-5.7,4.2,1.6.1,3.6-.8,5.3-.9.9.2,2.8.2,2-.6-.2,0-.3-.1-.2-.3ZM32.8,68.8c7.3-2.6,11.3-10,16.7-15.1-4,4.3-7,9.8-11.9,13.1-.8,1-6.5,2.6-3.8,2.7,11.5-.9,17.6-12.9,19.2-19.2-4.7.1-9.2,1.9-12.7,5.1-4,3.7-6.4,9.2-7.5,12.1-.2.5-.2,1,0,1.4v-.1ZM269.3,269.4c-.9-.5-1.9-.8-2.9-.9-1.1-.2-2-.1-2-.3,0-.7,1-1.2.5-1.8-1.3-1.8-3.1-.5-4.6.4-2.3,1.5-3.8,3.6-3.2.9,0-.5-.1-.9-.7-1-2.3-.4-3.7,3.4-5.1,4.5-.2-.1-.1-.3,0-.4s.2-.4-.2-.5c0-.3-2.4,1.2-1.4.3-.9.8-2.4,1.9-2.5,3.2,3-1.6,6.1-1,9.4-1.2,1.1,0,2.3,0,3.4.1-2.4-.1-4.8.2-7.2.3-1.6,0-4.4.5-5.2,1.5,0,0-.1.3.3.6.3.2.7.3,1.1.2.2,0,.5-.3.9-.3.3,0,1.3.3,1.4.1s0-.4.3-.4c.3.1,1.9,2.4,3.4,2.2.3-.1-.5-1.2-.2-1.2.8.9,1.7,1.6,2.9,2.1,1.1.8,4.8,2.5,6,.4.6-1.1-.9-1.8.7-2.3,1.8-.3,3.5-1,5-2.2,1.2-1.1,1.6-3.4-.1-4.3ZM280.6,38.9c.4.6.2.9-.2.9-.9.3-1.1,1.2-.3,2.2s2.8,1.8,3.4,2.6c0,.6-1,.6-.9,1.8s1.5,1.6,1.8,1.7,1.2-.4,1.4-.2-.2.3-.4.6c-1.2,1-.1,2.1,1,2.1,1,.1,2.2-1.2,1.7.4,0,.4.7.9.9,1.2.2.4.3.8.4,1.2.2.5,1.1,1,1.3.2-.8-4.9-2.8-9.6-5.9-13.6-.3-.3,0,0,.2.1,3.3,3.5,5.1,8.3,6.3,12.9.7-1.4.8-6.2.3-7.7-.5-.4-.4.8-.8.5-.1-.1,0-.5.2-1,.5-1.9,1.5-4.8,0-6.4-.9-.8-1.3,1-1.8,1.1-.5-.6-.9-7.9-4.1-6.7-.6.2-.2,1-.5,1.5-.1.2-.8-.4-1.6-.8-3.3-1.6-6.1-.1-3.8,3.3.3.8.8,1.4,1.4,2.1h0ZM274.9,54.8c0,1.3,1.4,2.1,2.4,2.6.6.3,1.4.6.8,1.1-.4.3-.5,1-.2,1.4.2.2.4.3.6.4,1.2.6,3.5-.3,3.2.5-.1.4-.5.7-.3,1.2.4.6,1.2.8,1.8.4.3-.1.8-.9,1-.8s0,.3-.1.7c-.5,1.3.3,1.8,1.4,1.2.7-.4,1.3-2,1.4-.6.1.3.8.4,1,.5s.5.6.6.7c.6.4,1.2-.1,1-.8-2.1-2.8-4.7-5.7-8.2-6.8.3.1.6.1.9.2,3.1,1.1,5.6,3.6,7.6,6.1,0-1.3-1-4-1.7-5.4-.1-.2-.2-.4-.3-.4-.5,0-.1.8-.4.7-.5-1.5,0-5-2.1-5.6-.9-.2-.7,1.4-1,1.8-.2.1-.8-1.2-1.1-1.5-.9-1.3-2.5-3.2-3.8-1.6-.4.5.2.9.1,1.4,0,.2-.7,0-1.5.1-1.2.2-3.1.8-3.1,2.5h0ZM256.3,27.2c-.4.3-1.3-.2-1.3.4.2,3,5.9,3.4,7.8,4.6,0,.5-1.6.6-.6,1.6.5.5,1.1.9,1.9,1.1,1.5.5,3.6.1,4.9.5.3.4-.8,0-.4.6,1.3.7,5.5,2.8,6.6,2.9-4.1-4-8.8-7.2-13-11,3.5,3.1,7.5,5.5,11,8.7.8.8,1.7,1.4,2.6,2.1.2.1.3,0,.4-.2v-.1c0-1-.8-1.2-1.4-1.9-.2-.3-.7-1.3-1-1.4s-.5,0-.7-.3.5-.9.5-1.4c.1-.9-.8-2.6-1.9-1.9-1.1.7-.4-.4-.3-1,0-1.8-2-3.2-3.5-2.6-.3.1-.4.3-.6.2-.5-.3-1.5-2.6-3.4-4.1-1.2-.9-2.3-1.3-2.7-.2,0,.4-.3.5-1.1,0-1.5-1.1-3.2-1.9-5-2.5-3.5-.8-2.5,2-.2,4.4.7.7,1.5,1.4,1.4,1.5h0ZM192.9,63.7s-1.1-.9-1.3-.9-.6.3-.6,1.5c0,.6.1,1.3.2,1.9,0,0,.2-2,1.7-2.5ZM194.6,34.5l-.7,7.2c0,.3.5.2.5.2,0,0,.1,19,.2,19.1s.9-.2.9-.2c0,0-.3-16.4.4-17.8,1,.3,1.7,1,2.1,1.9l-.1-2.6v-.3c.2,0,.7.2.6-.2l-1.4-7.3c.2-.9.6-1.7,1.2-2.3.6-.5,1.3-.9,2-1.2.2-9-1.1-18-4-26.6l-.5-1c-.9,2.3-1.6,4.7-2.2,7.2-1.6,6.7-2.3,13.5-2.2,20.4,1.7.4,2.9,1.8,3.2,3.5ZM194.6,10.7c.4-1.7.8-3.1,1.1-4.3l.2,26.3c.1,2,0,4.9,0,6.9,0-.6,0,1.2,0,1.2-.3-.1-1,.3-1.1-.2l.4-5.2c0-.1.1-2.6-.5-3.3-.6-.9-1.4-1.6-2.4-2.1.1-6.4.8-13,2.3-19.3ZM198.9,62.5c-.6-.4-1.2-.8-1.9-1h-1.9c-.8.1-1.6,0-2.3-.4h-.2c-.3.4,0,.8.3,1.1.5.7,1.4,1.1,2.2,1,1,0,2.1-.5,2.9.1.6.5,1.2,1,1.7,1.6.2.4.3.8.3,1.3,0,0,.9-.5.3-2.5-.2-.5-.9-.8-1.4-1.2h0ZM195.6,66.4c1.2,0,4,1.9,4.2,2s.2-.9.2-1-.2-.8-.7-.8c-.7-.2-1.3-.7-1.8-1.2-.3-.4-.7-.6-.8-.5s-.3.3-1.2.2c-.9-.1-1.7.2-2.4.7-.2.2-.5.4-.8.4-.5.7-.7,1.7-.5,2.5,1-1.2,2.3-2.1,3.8-2.3ZM197.9,75.4c.1,0,.2,12.8.2,13.2,1.4-1.2,2.6-2.5,3.9-3.8-.3-2.7-.8-5.3-1.5-7.9-.5-1.1-1.4-2.7-1.9-3.5-.3-.5-.8-.9-1.3-1.1-1-.2-1.8-.7-2.5-1.5-.3-.2-.6.1-1.4.3s-.7-.7-.7-.7c.4.1,1.9-1.3,2.4-1.3,1,.1,1.9.4,2.9.7.1.1.6-.1.6-.1-.5-.6-3.9-1.9-4.1-2s-1.4,1-1.7,1.6c-.1.2-.4.3-.7.2,0,0-.1,0-.1-.1,0,0-.4.6,0,3,.3.9.7,1.7,1.3,2.4.3.7.8,1.2,1.5,1.6v3.7l.1,7.6.7-2c.1-2.1,0-11.2,0-11.4.6.6,1.4,1,2.3,1.1Z"/>
</svg>
